<svg width="96" height="112" viewBox="0 0 96 112" fill="none" xmlns="http://www.w3.org/2000/svg">
<path d="M87.0303 89.5213V66.1818C87.0303 48.7909 75.5961 34.0222 59.8517 28.9931L71.6232 19.1836C72.7832 18.2163 73.4546 16.7837 73.4546 15.2727C73.4546 6.85135 66.6029 0 58.1818 0H37.8182C29.3968 0 22.5455 6.85135 22.5455 15.2727C22.5455 16.7837 23.2165 18.2163 24.3768 19.1836L36.1484 28.9931C20.4036 34.0222 8.96971 48.7909 8.96971 66.1818V89.5213C3.67313 93.6687 0.484863 100.089 0.484863 106.909C0.484863 109.721 2.76423 112 5.57577 112H90.4243C93.2358 112 95.5152 109.721 95.5152 106.909C95.5152 100.089 92.3266 93.6687 87.0303 89.5213ZM51.302 88.7434V90.5598C51.302 91.8003 50.1175 92.888 48.767 92.888C47.3691 92.888 46.2314 91.8434 46.2314 90.5598V89.0461C39.9394 88.5282 35.9946 84.8111 35.9946 82.2216C35.9946 80.7489 37.2853 78.9705 38.8876 78.9705C39.844 78.9705 40.4678 79.6194 41.1283 80.3064C42.0498 81.2648 43.3809 82.6489 46.2311 83.0555V70.5892C41.9333 69.0643 36.9151 66.9886 36.9151 59.9526C36.9151 54.3465 40.2903 50.7445 46.2311 49.9232V48.5954C46.2311 47.3095 47.3687 46.2635 48.7667 46.2635C50.1172 46.2635 51.3016 47.3533 51.3016 48.5954V49.7864C54.5429 50.1312 59.0833 51.332 59.0833 54.1666C59.0833 55.5249 58.0013 57.4193 56.2402 57.4193C55.5997 57.4193 55.0438 57.136 54.4 56.8074C53.6608 56.431 52.7132 55.9477 51.3016 55.6881V65.9154C54.7604 67.2204 60.0054 69.7682 60.0054 77.5624C60.0054 83.5629 56.8521 87.5799 51.302 88.7434Z" fill="#FF9C06"/>
<path d="M42.8548 59.6464C42.8548 61.9503 43.9439 63.075 46.3363 64.1146V55.7848C42.8545 56.5559 42.8548 58.837 42.8548 59.6464Z" fill="#FF9C06"/>
<path d="M51.1496 72.6205V82.6665C53.0736 81.8988 54.0137 80.3172 54.0137 77.8699C54.0137 75.1768 52.9874 73.7194 51.1496 72.6205Z" fill="#FF9C06"/>
</svg>
