<?xml version="1.0" encoding="iso-8859-1"?>
<!-- Generator: Adobe Illustrator 19.0.0, SVG Export Plug-In . SVG Version: 6.00 Build 0)  -->
<svg version="1.1" id="Layer_1" xmlns="http://www.w3.org/2000/svg" xmlns:xlink="http://www.w3.org/1999/xlink" x="0px" y="0px"
	 viewBox="0 0 330 330" style="enable-background:new 0 0 330 330;" xml:space="preserve">
<g id="XMLID_71_">
	<path id="XMLID_85_" d="M280,263.768V195c0-51.241-33.69-94.756-80.08-109.574l34.684-28.903C238.022,53.673,240,49.452,240,45
		c0-24.813-20.188-45-45-45h-60c-24.813,0-45,20.187-45,45c0,4.452,1.977,8.673,5.396,11.523l34.684,28.903
		C83.689,100.244,50,143.759,50,195v68.768C34.394,275.988,25,294.906,25,315c0,8.284,6.716,15,15,15h250c8.284,0,15-6.716,15-15
		C305,294.906,295.605,275.988,280,263.768z M174.729,261.476v5.352c0,3.655-3.49,6.86-7.469,6.86c-4.119,0-7.471-3.078-7.471-6.86
		v-4.46c-18.539-1.526-30.162-12.478-30.162-20.108c0-4.339,3.803-9.579,8.524-9.579c2.818,0,4.656,1.912,6.602,3.936
		c2.715,2.824,6.637,6.902,15.035,8.1v-36.731c-12.663-4.493-27.449-10.609-27.449-31.34c0-16.518,9.945-27.131,27.449-29.551
		v-3.912c0-3.789,3.352-6.871,7.471-6.871c3.979,0,7.469,3.211,7.469,6.871v3.509c9.55,1.016,22.928,4.554,22.928,12.906
		c0,4.002-3.188,9.584-8.377,9.584c-1.887,0-3.525-0.835-5.422-1.803c-2.178-1.109-4.97-2.533-9.129-3.298v30.134
		c10.191,3.845,25.645,11.352,25.645,34.317C200.373,246.212,191.082,258.048,174.729,261.476z"/>
	<path id="XMLID_88_" d="M149.84,175.744c0,6.788,3.209,10.102,10.258,13.165v-24.543
		C149.839,166.638,149.84,173.359,149.84,175.744z"/>
	<path id="XMLID_89_" d="M174.28,213.971v29.6c5.669-2.262,8.439-6.922,8.439-14.133
		C182.719,221.503,179.695,217.209,174.28,213.971z"/>
</g>
<g>
</g>
<g>
</g>
<g>
</g>
<g>
</g>
<g>
</g>
<g>
</g>
<g>
</g>
<g>
</g>
<g>
</g>
<g>
</g>
<g>
</g>
<g>
</g>
<g>
</g>
<g>
</g>
<g>
</g>
</svg>
