<svg id="Capa_1" data-name="Capa 1" xmlns="http://www.w3.org/2000/svg" viewBox="0 0 2000 903.66"><path d="M0,689c.7,0,1.64.29,2.07-.05,1.67-1.33,3.24-1.11,4.93-.16.61.34.69-.69,1.24-.62.84-.25,1.08.77,1.73.85,2.42-.85,4.68-2.21,7.25-1.64,1-.67.18-1.69.71-2.37.78-.67,1.25-.08,1.78.46,4-2,8.63-1,12.59-2.47.81.37.58,1,.86,1.68,1.2-.78,2.76-.85,3.38-2.48,1,.93,1.91,1.4,2.72.07.49.23.66.94,1.57.77l2.84-3.21c-.21,0-.06,0,0,0,.51.48,1,1,1.66,1.64,1.89-.55,3.54-2.4,5.94-1.65.51.63,1.62,1,.79,3,1.79-1.34.47-3.25,2.09-3.75,3.11,0,6-1.09,9.65-1.66l1.11,1.1.51-1.33,1,.86,1-1.18.73-.48c1.15,2.14,3.21-.78,4.52.87l3.1-1.66c.54.9,1.82.75,2.57,1.49.51-1.08,1-2.14,1.58-3.38a8.41,8.41,0,0,1,3.49,1.83l.52-1.51c.55-.37.57.34,1.12.48L86.6,673c1.22-.4,1.32.89,2.13.73.68.12.85-.59,1.65-1l1.17,1.8c1-.39.17-1.28,1-1.55l.91.75c.36-.53.74-1.1.84-1.23,1.65-.9,3.28.15,4.19-1.29l1.58,1.58c.73-1,.83-2.62,2.56-2.47.64.31.33,1,.83,1.73.83-.64.25-2.34,1.75-2.3,1-.2-.07,1.16,1,1.37l.82-.06c.4-.63-.29-.66-.4-1.06a1.89,1.89,0,0,1,.26-.51c1.08-1.11,2.52-2,3.19-3.34s2.14-1.82,3-2.89c.18-.22.49-.37.58-.61,1.69-4.65,5.85-7.22,9-10.62a67.69,67.69,0,0,1,8.69-7.39c3.1-2.38,6.6-4.33,9.35-7.23,1.05-1.1,2.69-1.62,4-2.45.9-.56,1.78-1.17,2.64-1.79s1.28-1.9,2.64-1.79c1.23-1.9,3.66-1.53,5.19-2.74a46.53,46.53,0,0,1,4.64-3.13c1.8-1.08,3.9-1.4,5.73-2.49a99.8,99.8,0,0,1,16-7.25c.66-.25,1.74-.13,2.07-1.11,1.39-2.33,1.48-4.88,1.38-7.47-.16-4.56,1.44-9,.85-13.6,1.33-2.3.84-4.83.79-7.26,0-1.81,1.16-3.25,1-5.15-.15-1.67-.91-3.64.73-5.16.14-.13,0-.54,0-.82-.52-4.86.8-9.6,1-14.44.24-6.37.91-12.88,3.31-18.86,3-7.5,7.49-13.76,15.93-16.19,3.35-1,6.38-3,9.73-4,5.54-1.62,10.49-4.65,16.06-6.2a21.52,21.52,0,0,0,4.65-2,79.21,79.21,0,0,1,7.66-3.31c0-6.55.2-13.16-.12-19.75a22.82,22.82,0,0,0-1.4-6.55c-.51-1.4-1.3-2.94-1.06-4.67s-.86-3-.92-4.71c-.07-2.41-1.1-4.77-.64-7.38,1.49-2.07,1.78-5.29,5.23-6a7.3,7.3,0,0,1-1.13-4c.16-2.24-.07-4.51.06-6.76a45.52,45.52,0,0,1,3-13.54,21.49,21.49,0,0,1,8.69-11.16,6.24,6.24,0,0,0,2.72-4.77,17.74,17.74,0,0,1,4.06-8.91,15.62,15.62,0,0,1,5.4-4.33A50.61,50.61,0,0,1,276,405c4.57-1.78,9.16-2.59,14-.58a36.33,36.33,0,0,1,6.48,3.83c4,2.75,5.8,6.63,7.44,10.88.43,1.13.13,2.16.66,3.58,12.73,9.22,16.55,22.28,14.56,38,1.22,1,3.23,1.76,4.59,4.06a12.38,12.38,0,0,1,.86,7.05c-.78,3.72-1.34,7.5-3,11a28.93,28.93,0,0,0-2.87,12.34c0,3.52,0,7,0,10.56,0,2-.12,3.8-1.66,5.24,3.88,2.57,8.41,3.42,12.76,4.65,12.44,3.54,24.56,8.08,36.92,11.9a6.6,6.6,0,0,1,2.48,1.11c3.39,3.15,6.72,6.37,8.43,10.86.47,1.25-.42,2.86,1.07,3.78-.61,2.93,1.2,5.6.88,8.53-.55,5,1.37,9.86.81,14.86,1.09,2.18.38,4.65,1,6.81s.35,4.63.8,6.85c.87,4.25,1.83,8.46,1.62,12.84,1.37,2.44.52,5.13.9,7.67a56.65,56.65,0,0,1,.87,7.26c0,2.28-.93,4.74.72,6.86-1.81,1.75.6,3.37.15,5.22s-.1,3.91-.1,5.81l1.55,1.55a5.53,5.53,0,0,1-1.43,5.14c-1,3,1.33,5.62.71,8.33,4.26,5.38,5.44,11,3.12,17.44-1.06,2.93-3.17,5.15-4.53,7.85-.11.23-.18.49-.27.74.05.8.86,1,1.23,1.62,1.28.29,2.06-1.52,3.68-.66.28-2.47-.23-5.09,1.77-6.48.22-1.11-.53-1.27-.72-1.75,1.66-.69,2.19-2.45,3.32-3.63.14-.15,0-.56,0-.83.55-2.59,1.29-5.15,1.63-7.76.26-2.08-.08-4.23.09-6.33s-.79-4.15.76-6c-1.27-1.12-1-2.4-.41-3.74.46-1.08-1.07-2.06-.19-3.19.66-.45.6.81,1.33.35,1.88-7.49.63-15.31,1-23,.09-1.73-.43-3.47.72-5.21a4.09,4.09,0,0,0,0-3.67c-1.2-1.83-.36-3.77-.92-5.69l-3.06-1.95v-7.26c1.12-1.52,3.55-1.46,4.93-3.22,0-2.55.45-5.33-.15-7.85a27.52,27.52,0,0,1-.7-5.62c-1.45-1.89-3.81-1.62-5.77-2.4-.56-2.18.18-4,1.9-5.58l2.74-.14c1.54-2,3.05-3.89,1.15-6.47-.14-.19,0-.56,0-.84.54-5.7-1.22-11.27-.88-17,.32-5.25-1.38-10.42-.83-15.71.18-1.79-1.45-3-1.8-4.76-.43-2.16-1.44-4.19-1.65-6.5-.2-2.05-1.67-3.86-1.62-6.08.07-2.39,0-4.78,0-7.18a3.17,3.17,0,0,0-2.39-1.53c-.5-1.9.53-4.13-1.12-5.78l1-1.43c.15-1-1-1.47-.89-2.62.64-7.37-1.36-14.66-.79-22,.26-3.46-1.48-6.74-.85-10.22-1.45-2.28-.91-4.84-.8-7.25.31-6.41-1.53-12.69-.89-19.1-1.37-3.46-.69-7.08-.86-10.63,0-.67.17-1.33-.42-1.95-1.15-1.2,0-2.21.46-3.33-.46-.89-.94-1.82-1.44-2.81,1.09-2.51.44-5.24.54-7.91s0-5.36,0-8a10.11,10.11,0,0,1-1.83-4.41l3.21-2.88,2,1.86c0-2.43.06-4.5,0-6.56-.08-1.88.55-3.88-.84-5.59a4.61,4.61,0,0,0,.63-3.33,23.15,23.15,0,0,1,.62-14l2,2v-3.52l1.62-1.53a5.34,5.34,0,0,0,.23-.83,26.38,26.38,0,0,0-1.53-9.51,11.4,11.4,0,0,1-.15-3.32c0-2.37,0-4.74,0-6.88.52-.6.93-.45,1.52-.38.66,4.38-.71,9,1.55,13.84,1.24-8.85-1.54-17.11-.37-25.24-1.05-.83-1.15.74-2.52,0a6.49,6.49,0,0,1-.81-5.42l2.35-.27c-.23-2,.6-4-.94-5.82.74-.77.64-2,1.61-2.54.36.13.79.19.82.32.23,1.42.76,2.77.25,4.33a12.07,12.07,0,0,0-.08,3.66c.93.08,1.16-1,2.3-.51.43.9.18,2.37,1,3.05a2.05,2.05,0,0,1-.61,2.17c-.36.33,0,1.11-.65,1.39-.37.06-.86-.19-1.22.71.23,4.71-.64,9.85,1.37,15.54.3.39,1.21,1.14,2.94.33v-2.89c1.6-.55,2.31,1.6,4.05.17,0-1.08.13-2.7.2-4.23.71-.79,1.76.16,2.37-.67a6.67,6.67,0,0,1,.59-.6c1.37-2-1.13-3.78-.41-5.69.49-.07.8-.21,1-.11a8.24,8.24,0,0,1,1.22.94c.2-2.25.66-4.32-.43-6.48l.91-1.92c.82.14,1.12,1,1.74,1.42.84-.3.74-3.15-.19-5.53a4.67,4.67,0,0,1,3.16-1.23,8.77,8.77,0,0,0-.69-5c-.79-1.53,1.54-3.27.64-4.6-1.22-1.79-.51-3.51-.67-5.24a11.29,11.29,0,0,1,.68-4.76c.56-1.62.13-3.58.13-5.32.83-.62.83.5,1.38.39.39-.24.29-.68.31-1.09-.55-1.11-1.94.07-2.53-.92,0-.28,0-.56,0-.82.32-.61,1-.32,1.43-.59a2.76,2.76,0,0,0,.25-.77,63.25,63.25,0,0,1,.07-6.75c.24-2.14-1.14-3.9-.94-6a32.41,32.41,0,0,0,0-5.91c-.2-2.19-.33-2.18-.06-2.73-.17-.61-1.08-.89-.73-1.77l.78-.84c-2-2.29.35-5.45-1.54-7.73.5-.51,1-1,1.53-1.53a21.32,21.32,0,0,0-.72-7.21c-.55-2.2,0-4.51-.75-6.87s-.16-5.3-.16-8.07l1.57-.54v-6.3c-.39-1-1.79-.86-2.62-1.9.84-1,2.63-1.3,2.51-3.12.07-1.71.75-3.7-.65-5.39l1.27-2.5,1.23,1.18v7.48c.84.86,2.42.79,2.6,2.29-.08,1-1,1.27-1.69,2.23-.2,3.52,1.84,7.18.6,10.88,1.24.58,1.5-1,2.76-.24-.62-3,1.87-5,1.86-7.63l1.48-.35v-5.1c.42-.72.88-.57,1.51-.62.64-1.49-.06-3.2.38-4.75.29-.48.76-.24,1.15-.32,1.48-1.8-.52-3.29-.46-5,0-1,1-1.28,1.6-2.16v-3.4c1.35-.57.49-2.33,1.72-2.49.37-1.22-1.11-1.49-.75-2.46.21-.68.81-.57,1.46-.6.46-1.92.43-3.74-.74-5.22.43-.84,1.13-.51,1.81-1-.21-1.38.55-3-.85-4.43.06-1.94,3.11-3.43.9-5.75.24-.62.91-.32,1.49-.66.26-1.65.46-3.37-.85-5l2-2.24c-1-1.15-.88-2.76-1.59-4.18l1.44-1.53c-.2-1,.34-1.94-.36-2.85a2.7,2.7,0,0,1-.05-3.4c1-1.35,0-2.25-.45-3.3,1-1.88,1.49-3.76,0-5.75,1.27-1.9.21-4.41,1-6.23,1-2.21.42-3.8-.34-5.65a3.61,3.61,0,0,1-2.35-1.51c0-1.66,0-3.34,0-5a4.79,4.79,0,0,1,.79-2.65c1.5-2.62.88-5.59.83-8.45-1.54-.87-.09-2.71-1.3-3.84-1.32.4-2.58,1.59-4.42.57-1.69-2.29,2.18-3.66,1.6-6.07l1.54-.54c.07-.63.14-1.3.23-2l1.43-.53c.53-1.09-.47-2.57.9-3.43-1.26-.65-.39-2-1-2.89l-1.17-.3c-.63-.88,0-1.9-.35-2.75L431,94.4c-1.23-1.35-.55-3-.75-4.42,1.08-.61,2.06-.27,3-.33.38.57,1.16.81,1.24,1.6s-.55.91-.85,1.37c.23,1.74,1.78,3.22,1.08,5.22-.07.19,1,1,.58,1.35-1.75,1.82-.53,3.56.07,5.24.55,1.52.74,3.21,2.86,3.95,1,.35,1,2.83,3,2.47V113c-1.79.71-3.78-.09-5.63.41-1.17,2,.76,3.58.6,5.46s0,3.92,0,5.94c1.31.08,1.93,1.52,3.29,1.13v8.18C437,135,437,137,437,139.34l1.69,1.57c.27.87-1.49,1.57-.08,2.75.59.49-.36,2.19.86,3-1.32.78.08,1.49.07,2.24,0,1.08-.23,2.24.87,3-.18,1.14-1.41,2.06-.64,3.56.2.46,1.08-.3,1.42.83-.33,1.29.82,3.18-.77,4.76l1.67,1.77v5l1.55,1.55c.72,1.3-1.63,2-.95,3.59l3,2.32c-1.69,1.09-.78,2.46-1.15,3.58l1.77.69v5.26l1.62.58c-1.08,3.54-.79,4.51,1.73,6.15.26.86-.53,1.2-.77,1.62-.19.82.31,1.14.65,1.57s0,1.11.66,1.39c.37,0,.82-.11,1.1.36.63,1-.82,1.3-.77,2.2.26,1.19,1.23,1.59,2.38,1.88.06,1.16.68,2.41-.52,3.41.52,1.09.67,2.51,2.44,2.65v4.48l1.46.38v4.38l1.41,1.31.9-.76c.83,1.22.07,2.67.56,4.06,2,.18,2.66,1.48,2.35,3.25a3.26,3.26,0,0,0,2.29.18c1.25-4.13-1.26-8.09-.54-12.1-1-1.06-1.54-.23-2.13.35-.8-.47-.33-1.24-.47-1.92.67-.8,2-.68,2.46-1.8,1-2.95-1.36-5.59-.68-8.57.57-.4.86-1.41,1.94-1.2,1.21.77-.58.9-.32,1.49-.24.82.77,1.06.91,2.12,0,.1-.26.4-.66.76-.56.81,1.14,1,.65,2-.4.85.25,1.74.66,2.63.31.68,1.13,1.23.9,2.61-1.6,3.24-.41,7.13-.84,11,1.45.37.41-2.68,2.6-.94,0,1.5-.08,3.44,0,5.37.07,1.31-.58,2.76.78,3.92.41.35-.23,2.53-.85,3.93l.89,1.24c.23,1-1.27,1.46-.87,2.62.3.87-.42,2,.48,2.76.62.54.32,2,1.78,1.73,1,1.37-.68,3.41,1.15,4.53l-1.07,1.18c1.32,1.07,1,2.62,1.08,4.1.11,1.73-.47,3.52.78,5.18.72,1-1,2.08-.08,3.56.66,1.1.06,2.86.91,4.26a1.26,1.26,0,0,1-.77,1.93c-.16,1.35,1.55,2,.56,3.71L471.59,272c.49,1.54,1.92,2.13,2.64,3.32-1,1.29.1,2.61,0,3.93s0,2.81,0,4.47l1.29.95c.83,3.09,1.63,5.85,1.23,8.74s1.84,5.24.6,8.08c2-.09,1.79,1.67,2.7,2.32-.61,1.47-.69,2.16-.49,4.7,1.31.31,2.33-1.57,3.82-.54-.11,4.4,3,8.37,1.74,12.73,1.22,1.31,1.62,0,2.27-.21.41.4.82.78,1.19,1.15.08.63.06,1.19-.59,1.39-.15.91,1,1.25.72,2.13.61.61,2.72.38,4.74-.57.58,3.7,2.22,7.13,2.18,11,1.61-8.94-.91-17.78-.2-26.58-1-.61-1.32,1.18-2.53.14.38-1.92-.67-3.88-1-5.91.62-1,1.64-.22,2.36-.72.49-.88.16-1.86.21-2.81L492.81,298c1.05-.95,2.2-1.95,1.59-3.67l1.44-.09c1,1.15-.56,3,1.47,3.77-.83,1.41-1.46,2.77-1,4.33.55.66,1.33.09,2,.44a8.06,8.06,0,0,1,.11,7.32c-1.15.11-.07-1.25-.84-1.4-.44,1.59-.44,1.59.29,3-1.55,3-.55,6.21-.89,9.16l1.33,1.24c.69-.47.11-2.32,2-1.4.44,2.3-1.27,3.78-2.48,5.47-.1,1,.82,1.39,1.37,1.95a6.48,6.48,0,0,1,2,5.09c-.1,2.38,0,4.77,0,7.1l1.55,1.56c.12,3,.12,3-.68,5l1.17,1.64c.74-1.08.42-1.93.48-2.74s0-1.4,0-2.07c.29-.43.7-.47,1.41-.42.5,4.14,2.38,8.05,2,12.48a37.91,37.91,0,0,0,1.59,14.53,12,12,0,0,1,.05,3.35c2.79.29,2.2-2.72,3.81-3.29.06,1.66,1.95,1.53,2.92,3.06.52,2.82-1.81,6-.73,9.17s.48,6.26.87,9.82l1.72,1.1c-1.25,2.91-1.25,2.91-.15,5.12a2.7,2.7,0,0,0-.43,3.69,2.61,2.61,0,0,1,.37,2.34c-.42,1,.07,2.15-.48,2.89-1.06,1.44,1.27,2.09.57,3.35a1.58,1.58,0,0,0,0,.84c.37,3.68-.86,7.48.84,11.06-1.34,1.32.16,2.61.09,3.95a36.42,36.42,0,0,0,.68,10.65c.79,3.32-.81,6.92.88,10.22-2.25,1.08.89,2.46-.24,3.84-.8,1,.53,2.31.34,3.63-.23,1.51.35,3.24-.16,4.6-.65,1.75,1.85,2.93.44,4.55a11.46,11.46,0,0,1,.51,4.58c0,1.69-.37,3.49.08,5.05.81,2.81,1.28,5.46,0,8.21a1.88,1.88,0,0,0,0,1.64c1.3,1.61.64,3.45.8,5.18a6,6,0,0,1,0,1.27c-.66,5,1.19,9.87.82,15.07l-1.72,1.29c.35,3.54-.49,7.08.57,10.72-1.08.84-.08,3.26-2.13,3.71,0,3.27-.21,6.36,0,9.44.17,2.92-1.06,5.6-1,8.53s1.35,5.28,1,8.11c-.31,2.64-.64,5.51.06,8,1.07,3.74.14,7.47.78,11.09.92,5.24.17,10.56,1,15.7.65,4.3,0,8.59.77,12.76a69.27,69.27,0,0,1,.71,12.77c0,1.28,1.7,2,.78,3.28.53,1,1.82.35,2.12,1.37.68-.19,1.08-1.51,2.09-.45.57,1.45-1,1.72-1.54,2.66.17,1-.43,2.06.47,3.1s.41,2-.46,2.85c1.22.77.77,2,.78,3,0,3.53.22,7.06,0,10.57-.42,6.08.89,12,1.83,17.88.14.86.12,2.52,2.12,2.84.18-2.28,1.34-4.25,1.2-6.93l1.57-1.09a1.6,1.6,0,0,0-.67-1.76c.36-1,1.42-1.39,1.73-2.61a7.78,7.78,0,0,1,2.88-3.86,8.12,8.12,0,0,0,3-7.25c-.19-4.07,0-8.17-.07-12.25a21.67,21.67,0,0,1,2.74-12c-.71-2.1-2.38-3.83-1.86-6.13a26.84,26.84,0,0,1,.51-2.9,12.39,12.39,0,0,0,.3-3.66c.08-1.26-.24-2.6.07-3.79.94-3.63.71-7.46,1.94-11,.08-.23.34-.4.52-.6-.88-.51-.86-1.35-.8-2.54,2.17-1.83,3.78-4.71,7.19-5.51.65-.58.52-1.76,1.66-2.37h7.73l1.46,1.46a4.68,4.68,0,0,1,5.35.08l12-9.32c-.17-2.57,1.61-4,3.62-5.81l1.27-.15c.18-.46.36-1,.6-1.59h3c2.29-2.52,5.22-3.44,7.11-5.72s4.37-4,6.38-6.2,3.8-4.63,5.77-7c-.13-.72-1-1-1.46-1.71v-2.71l1.79-1.39-2.55-2.55c-.15-3.91-.15-3.91,2.4-7.34.2-.92-.37-1.51-.8-2.22-.31-.52.19-1.37-.31-1.88l-1.2-.25c-.43-.86-.37-1.1,1.11-4.08.41,0,.85.09,1.16-.42v-2.46a6.89,6.89,0,0,1-3.43-3.1c.88-1.67,1.53-.52,2.51.29V499c2.14,0,2.14,0,3.49,1v2.58l1.77.83c-.14,1.78-2.08,2.21-2.63,3.69,0,.48.06,1,.1,1.6L610,509c.85.85.2,5-1.49,8.71,2.38,1.35,2.3,4.18,3.51,6.35-.76,1.23-1,2.82-2.36,3.59.35,1.44,1.61,2.44,1.54,3.75s-1.2,1.66-1.71,2.49c4.82,7,11.26,12.29,18.56,17.35h3.21c.12.52.21.9.29,1.29a27.73,27.73,0,0,1,4.27,1.94c.93.42.45,1.2,1,1.6,1.1.86.41,2.08.64,3.27,1.79,1.21,3.7,2.43,5.53,3.76s4,1.62,5.26,3.67c3-2.17,4.29-5.23,6-7.84,5.78-8.72,11.33-17.6,17.22-26.25,1.93-2.84,3.36-6,3.16-9.68-.19-3.5.4-7-1.62-10.35a3.39,3.39,0,0,1,.25-3.58c1.57-1.75,1.28-3.78,1.36-5.8a3.89,3.89,0,0,1,.34-2,5.3,5.3,0,0,0,0-5.08,3.35,3.35,0,0,1-.34-1.55c0-.53,0-1.07,0-1.58,3-.46,5.71-1.35,8.64-1.13s5.88,0,8.61,0c4-6.6,5.69-13.91,8.71-20.7,1.73-3.87,3.09-8,4.46-12.1,3.48-10.39,6.79-20.84,10.38-31.2a143.44,143.44,0,0,0,5.73-19.61c1.29-6.56,1-6.65-.71-13.83-.41-1.68-.43-3.4-.84-5.11-.64-2.69-1-5.45-1.82-8.15-.28-1-.41-2.27.81-3,1-.62.8-1.66.87-2.45,2.59-2,6.07-2,8.45-4.26l-.66-.66c1-1.8,3.32-1,4.76-2.73-.28-2,1.29-4,.95-6.35-.31-2.19.59-4.32,1-6.37.76-3.74.66-7.7,2.36-11.24-.64-2.67,1.17-5.05.86-7.69-.2-1.64,1.23-3,.9-4.73a5.79,5.79,0,0,1,.78-4.71c-.63-3.2,1.37-6.19.82-9.36-.33-1.87,1.25-3.25.94-5.16-.25-1.55-.49-3.32.78-4.71-.62-3.07,1.27-5.94.79-8.94-.34-2.16.83-4,.94-6s-.82-4.18.79-6c.07-.08,0-.28,0-.41-.61-3.9,1.22-7.63.81-11.48-.42-4.05,1.38-7.89.88-11.91,1.32-2.3.41-4.89.92-7.25.78-3.54.2-7.21,1-10.61.58-2.63.41-5.16.66-7.72.28-2.87-.4-5.75.53-8.65.85-2.66.24-5.54.3-8.33.06-2.95.07-5.92,0-8.87,0-1.79,1.14-3.27,1-5.15-.17-1.69-.68-3.61.75-5.16.14-.15,0-.55,0-.83-.61-6,1.18-11.84.89-17.82-.26-5.53,1.39-11,.8-16.56,1.72-4.58.73-9.34.76-14,0-2.91,1.22-5.59,1-8.52s-.57-6,.1-8.84a42.2,42.2,0,0,0,.7-7.71,1.36,1.36,0,0,0-.69-1.33c.68-2,1.62-3.88,1.56-6.08-.11-4.08,0-8.17,0-12.25,0-.88.09-1.64.5-1.93-.46-2.93-.43-5.88-1.46-8.38s-.68-5.45-3.33-7c.68-4-1.16-7.66-.84-11.58s.07-7.88.07-11.83V63.86c3.11-3.87,4.34-8,2.8-12.94,1.12-2.18,4.46-2.5,5.32-5.27,1.32,0,1.63,1.17,2.44,1.68a2.58,2.58,0,0,0,3-1.37c-.74-2,1.11-3.94.79-6.13s1.17-3.84,1-6-1.59-4.13-.8-6.47l2.3-2.3v-18c-1.06-.75-2.33.24-3.24-.66-.3-1.43,1.19-1.73,1.64-2.68.53-1.3-.81-2.2-.92-3.28,1.51-1.23,2.18.78,3.54.54,1.07-.18,1.8-1.33,3-.91.67.59.18,1.35.34,2l-1.68,1.8c1.09.45.55,1.89,1.74,2.44l-2.59,1.95V25l2.47,2.47v4.42l-1.7,1.2c.33,4.84,3,9.18,2.58,13.94l2.73,1.26,1.43-1c1.71,1.46,3.59,1.23,5.35,0,1.44,1.33.48,2.3-.18,3.29.7,3.15,2.38,6.19.84,9.13l2.76,2.74c-.78,2.57.65,4.4.57,6.4-.1,2.71.17,5.37-.61,8.16-.61,2.15-.91,4.93.49,7.3-1.39,1.7-.34,3.89-.74,5.87l-2.39,2.39c-.37,1.12-.2,2.27-.73,3.5a11.91,11.91,0,0,0-1.09,5.91c.44,4.41-1.35,8.72-.81,13.17a50.06,50.06,0,0,0,1.54,8.66,8.79,8.79,0,0,1,.15,2.47c0,2.82.18,5.65,0,8.45-.48,6.55,1.41,13,.88,19.52,1.67,4.44.68,9.06.76,13.6,0,2.22,1.24,4.15,1,6.41-.24,2.09-.54,4.37,0,6.31,1.37,4.53.55,9.09.71,13.63.15,4.26,1.48,8.44.89,12.75,1.25,2.15.39,4.62.93,6.81.87,3.55.11,7.23.9,10.62,1.1,4.73.68,9.39.63,14.06-.08,6.53,1.54,13,.94,19.51-.15,1.62,1.15,3,.89,4.73-.2,1.42-.51,3,.75,4.32.21.22.07.82,0,1.24-.59,5.28,1,10.44.9,15.71-.05,1.85,1,3.58.86,5.57s-.52,3.85.76,5.58c.2.28.07.84,0,1.25-.52,3.75,1.38,7.31.85,11.06,1.83,3.07-.17,6.8,1.69,9.87-.65,3.07,1.31,5.9.83,8.94-.25,1.57,1.14,2.69.94,4.31-.16,1.26-.7,2.84.76,3.88-.14,2.19.68,4.32.72,6.41.1,4.38,1.71,8.45,2,12.81.22,3.25,1.54,6.51,1.46,9.87,0,1.7,1.9,2.92.73,4.47a3.71,3.71,0,0,0,2.52,1.73c.07.76-1.19,1.17-.46,2.11.27.39.71.18,1.2.2l.5-1.45c.2-.24.55-.2.58.16.11,1.63,1.31,2.42,2.53,3a15.62,15.62,0,0,1,7.66,6.68c-1.13,2-1.34,4.52-1.53,6.79-.35,4.05-2.24,7.83-1.83,12-1.48,2-.68,4.27-.83,6.42a13.27,13.27,0,0,0,.69,3.48c.88,4.27,2.48,8.31,3.61,12.49a55.85,55.85,0,0,0,4.13,11.8c-.44,3.79,2.24,6.7,2.86,10.27a41.36,41.36,0,0,0,3.15,9.64c3.16,7,4.75,14.64,8.33,21.49-.55,1.48,1.21,2.4.91,3.87-.17.81.84,1,1.18,1.65l.91-.82c.13.21.44.57.39.62a3.54,3.54,0,0,0,.08,4.78c1.69,2.12,1.39,5.17,3.68,7.17h16l1.18,1.19c-1.08,6.2-1.58,12.17,1.79,17.25.25,1.69-.64,2.48-1.05,3.43-1.58,3.7-1.43,6-.86,9.73.94,6.14,4.3,11,7.65,15.85,1.21,1.75,2.08,3.71,3.34,5.45,1.06,1.47,2.47,2.46,3.36,4.25,2-1.39,2.05-3.06,2-4.81-.07-3.81.85-7.46,1.6-11.15.26-1.31,1.2-1.78,1.77-2.68-.06-.93.38-2-1.31-2.54a4.61,4.61,0,0,0,1.3-4.16l1.67-1.67v-5.39c-.31-.26-1.32-.7-1.31-1.14,0-2.56-2.15-3.16-3.67-4.35.86-1.61,2.84-1.47,3.84-2.49,1.3-1.34,3.66.58,4.47-1.72v-3.54c2.11-1.22,2-3.83,3.27-5.63a16.1,16.1,0,0,0,2.71-6.92,3,3,0,0,1,.49-1.5c1.75-2.39,2-5.42,3.18-8s2-5.37,3-8c2.35-6.36,4.4-12.85,6.32-19.36,1.05-3.56,1.19-7.22-1.12-10.77-.19-2.09-.26-4.39,1.39-6.32.44-.51.21-1.06.24-1.58.05-.85-.3-1.88.07-2.51,2-3.46-.11-5.56-2.28-7.7-.39-.38-.84-.7-1.27-1.05l.83-.83c-.73-1.43-1.48-2.9-2.41-4.69a9.6,9.6,0,0,0,0-1.7,8.37,8.37,0,0,1,3.56-8.24,22,22,0,0,0,6.6-8.79c0-1.82-.54-4.38.14-6.54a14.65,14.65,0,0,0,.59-6.86,56.83,56.83,0,0,0-1.25-6.67c1.14-.9-.07-4.66,3.9-3.25v4.65c0,5.07,0,10.15,0,15.22,0,.85,0,1.68.83,2.19l-.8.9c2,1.86,2.28,4.75,4.06,6.82a22.32,22.32,0,0,0,1.94,2.52,11.92,11.92,0,0,1,4.15,9.73c-2.15,4.08-4,7.84-4.27,12.18a21.43,21.43,0,0,0,.71,7.47c.22.7.05,1.42-.69,2.95-.13.7.45,1,.79,1.37a21.48,21.48,0,0,0,.23,13.59c.71,2.06,1,4.35,2.36,6.2-.72,2.5,1.35,4.26,1.91,6.42a44.64,44.64,0,0,0,2,6.75,64.47,64.47,0,0,1,2.15,6.73,40.42,40.42,0,0,0,2.36,6.61,4.17,4.17,0,0,1,.1,1.41,8.21,8.21,0,0,1,4,1.29,36.46,36.46,0,0,0,2.76,12c.14.35.91.42,1.54.68v5.22c2.14,1.2,4.21,2.19,5.77,4.07-.12.79-1,1.08-1.47,1.78v2.61l-1.81,1.4c.82,3.21,2.11,6.08,1.7,9.52,1.63,1,2.09,3.07,3.1,4.66a1.23,1.23,0,0,0,1.19-.41c4.24-4.83,9.55-8.54,13.93-13.21a13.3,13.3,0,0,0,2.88-5.52c.55-2.08,2.27-2.43,3.58-2.68s2.74-1,4.39-.25c1.24.57,3-.31,4.2,1.2a20.33,20.33,0,0,0,5.1,5.19c2.2-4.44,1.14-8.89,1.46-13.12-.83-1.29-1.21-2.81-2.55-3.64a4.58,4.58,0,0,1,2.24-1.57c5-2.49,6.86-6.18,6.16-11.71-.06-.45-.77-1.14-.66-1.25,1.34-1.47,0-3.48.78-4.75,1.35-2.17.39-4.27.83-6.47-1.29.08-.61,2-2.31,1.46-2.12-4.64-.7-9.8-1.25-14.8-.58-.82-2-1.19-1.74-2s.18-1.26.33-1.43c3-3.29,7-3.85,11.27-3.62l1.1-1.31c0-.92-1.27,0-1.5-.8s.27-1.22.77-1.69c0-3.46,0-3.46-.93-5.33,2.78-3-1.19-6.05,0-9.23a10.83,10.83,0,0,0-1.63,7.21c-.36-.58,0,.31-.48,0-.11-.07-.29-.19-.29-.29,0-3.66,0-7.33,0-11,0-.1-.18-.2-.31-.34-1.23.44.1,1.84-.86,2.36-1.11-.16.16-2.91-2.51-1.24.7-2.06-.39-3.63,1-4.94a1.26,1.26,0,0,0,.1-1.18c-1.3-2.09-.26-4.88-2-6.78-.93-1-.3-2.11-.49-3.13,1.11-1.49,3.4-1.44,4.2-4.26-.71-5.88,1.37-12.58.86-19.4-.07-.95.12-1.92-.68-2.47.76-1.94,2.68-3.62.75-5.88.41-2.64-1.55-5-.79-7.84,1.51-1.58,3.63-3.08,3.25-5.88l1.49-.55c1.07-2.91-.91-5.41-.7-8.18s0-5.35,0-8l-1.7-1.8c2.13-6.05,3.08-12-1-17.37,1.92-4.5,4.68-6.75,8.92-7.49,2.34-.41,4.47-1.64,6.91-1.72a9.42,9.42,0,0,0,1.31-4.55,10.5,10.5,0,0,1,3.31-7.69V293l-1.32,1.14c-1.37-3.72-1.38-7.54-1.16-11.35-3.23-1.28-2.49-4.06-2.61-6.5,1.64-2.2,3-4.6,5.66-6.6a9.1,9.1,0,0,0,3.74-.81c1.77-.81,4-.79,5.54-1.85,1.85-1.28,4.18.15,5.73-1.54,5-.13,9.86-2.73,14.9-1.64a45.77,45.77,0,0,0,9.81.72c1,0,2.21.45,3.14-.64a1.81,1.81,0,0,1,1.57-.15c3.47,1.32,7.07,1.49,10.72,1.76a50.12,50.12,0,0,1,9.29,2c3.28.88,6.51,2,9.74,3a36,36,0,0,1,9.33,5c1.08.74,1.36,2,2.1,3.21-.07,1,.52,2.37-.26,3.38-1.72,2.23-1.61,5.38-3.88,7.35v4.42l1.64,1.15v2.09c-.75.68-2.1.54-2.41,1.75l.76,1a10.56,10.56,0,0,1-1.13,2.54c-1.33,1.6-1.48,3.39-1.46,5.33,0,6.34,0,12.68,0,18.72,2.1,5,6.55,5.51,10.94,6.88-.14-4.44,1.44-8.26.9-12.28-.18-1.39,1.39-2.42.84-3.88-.6-1.62.83-2.8.88-4.3,0-1.31-.58-2.78.76-3.93.28-.24,0-1.07.06-1.63a11.08,11.08,0,0,1,.76-4.76c.63-1.4-.42-3.23.86-4.74a3.13,3.13,0,0,0,0-2.47c-.94-2.76-1.44-5.48-.07-8.23-1.65-1.49,0-2.89.08-4.33s0-3,0-4.41c.67-.28,1.06-.36,1.48,0,.84,1.34-.85,3.37,1.08,4.38-.13,1.4-1.18,2.24-.56,3.91a15,15,0,0,1,0,9.29,10.37,10.37,0,0,0,0,5.66c.13.46.63.84.54,1.46-.65,4.45,1.35,8.74.82,13.17-.24,2,1.18,3.56,1,5.58-.18,1.68-.68,3.6.75,5.15.14.15,0,.55,0,.83-.64,4.59,1.06,9,.92,13.6-.06,1.84,1,3.59.83,5.57s-.52,3.86.78,5.57c.07.09,0,.27,0,.41-.64,4.45,1.33,8.74.83,13.17-.15,1.3.57,2.32.82,3.47.55,2.47-.43,4.88-1.12,7.13a12.25,12.25,0,0,0-.5,3.57c0,11.41,0,22.82,0,34.25,1.68,1.3,3.88,1.41,5.8,2.55a11.24,11.24,0,0,1,.19,8.81c-1.72,4.53-3.18,9.14-5.95,13.41v38c2.27.91,5.27.77,6.8,3.59-1.13,3.36-.47,7.29-1.93,10.51s-2.6,6.6-4.91,9.74V521.5a60.92,60.92,0,0,0,.06,6.76c.25,2.26-1.26,4.19-.9,6.42,2.47,2-1.36,4,.17,6a5.67,5.67,0,0,0,5.38,2c1.21,8.56-.15,15.55-5.55,19.93v12.67l1.21,1.2c1,.16,1.94.21,2.58-.76.61.29.29,1,.6,1.42.74.65,2-.3,2.58.89,1.76-.22,2.73-1.9,4.61-2.6a4.6,4.6,0,0,1-1.67,4.31c-.52.23-.58-.37-.66-.41-1.56-.83-2.19,1.28-3.65.66a2.26,2.26,0,0,0-3,1.22V591.5l2.55,1.84h4.95c1.57.82,2.79,2,4.64,1.77.65,1.45,1.23,3.12,3.47,2.44,2.07-3.35,4-6.93,7.13-9.58v-1.71c.74-.92,1.56-1.65,2.85-1.27a90.92,90.92,0,0,1,7.81-6.77h3.24c.64-.31.33-1,.63-1.44,1.79.8,3.52,1.25,5-.91a5,5,0,0,1-.91-4.1c1.81-.35,3.41-1.65,5.38-1.09.46-.88.88-1.69,1.31-2.5.25-.94-1.38-1.15-.85-2.19.39-.88,1.86.07,1.82-1.71l1.62,1.61c-.21,1.39-1.59,2.29-.54,3.9,1.39-.19,2.77-1.42,4.23-.82.84-.73.23-1.51.72-2.39,1.32-1.71,3.61-3,4.83-5.26s3.89-2.49,5.07-5c.51-1.8.58-4.09,1.83-6-4.13-4.85-5.53-10.54-6.17-16.3,1.43-1.85,3.67-1.77,4.9-3.24,1.7-6.57,1.08-13.23,1.1-19.86,0-3.58,1.81-7,.94-10.68-.86-1.32-2.21-2.55-2.51-4-.83-4.07-2.73-8-1.49-12.64,1-1.39,3.34-.76,4.78-2.17,0-1.9-.36-3.94.07-5.81,1.32-5.78.58-11.61.75-17.42,0-1.51,1.16-2.7.92-4.3a39.5,39.5,0,0,1-.06-4.22c0-.92.28-1.87-.57-2.74a1.59,1.59,0,0,1,.14-2.23,1.58,1.58,0,0,0,.43-1.51c-.56-3.35.83-6.5,1-9.79A28.82,28.82,0,0,1,1192,427c.62-2,.28-4.1.81-6a18.7,18.7,0,0,0,.77-3.9c.09-1.33-.37-2.62.5-4,.63-1,0-2.76.36-4.06,1.55-5.47.6-11,.74-16.57.08-3,1.27-5.85,1-8.95s-.06-6.19-.07-9.29a1.91,1.91,0,0,1,.47-1.51,5.44,5.44,0,0,0,.66-1.51h1.92c.13.14.34.27.32.33-.59,1.74.9,3.08.88,4.73-.06,3.94-.12,7.89,0,11.83,0,1.22-1.1,1.85-.93,3a9.06,9.06,0,0,1,0,2.94c-.43,2.14,1.11,3.9.92,6s-.57,4.41.08,6.3c1,2.88.81,5.73.63,8.56-.14,2.28,1.18,4.18,1,6.42s-.58,4.42.09,6.29a16.93,16.93,0,0,1,.62,7.3c-.14,1.89,1.11,3.33,1,5.15s-.51,3.84.09,5.44c.74,1.94-.39,3.5-.22,5.28s.84,3.61-.63,5.19c-.22.24-.11.8-.11,1.21q0,12.65,0,25.24a8,8,0,0,1,5.08,2.38,24.26,24.26,0,0,1-2.84,10.3,18.71,18.71,0,0,0-2.32,9.22,80.18,80.18,0,0,0,1.11,11c3.08-.72,5.38-3.68,8.88-3.09.2-2.11,3.1-1.88,2.68-4.42,1.51,1.58,3.21,2.13,4.19,3.72a3.94,3.94,0,0,0,2.7,1.45c1.57.17,2.66,1.11,3.84,1.72.94.3,1.2-.81,1.86-.78,2,.1,2.43-.82,2.83-2.67.6-2.79,3.36-4,5.69-4.81,1.83-.63,3.63-1.61,5.59-1.8,1.15-.11,2-.68,2.08-1.61.3-2.33,2-3.77,3.28-5.41a51.77,51.77,0,0,0,3.32-4.11,43.08,43.08,0,0,1,9.36-9.66,84.51,84.51,0,0,1,11.86-8.22,88.91,88.91,0,0,1,17.55-7.64c1.91-.59,4.06,0,5.77-1.39.46-.37,1.5.32,1.95-.3s1.29-.38,1.83-.88c-.25-3.41,1.93-5.73,3.87-8.07,1.61-1.95,3.55-3.62,5.42-5.5V449.3l-1.64-1.83c.1-1.32,1.26-1.62,1.77-2.54-.38-2.18.62-4.61-.83-6.95a10.91,10.91,0,0,0-.16-9.08c.43-1.6,1.88-2.16,2.59-3.31-.5-.5-1-1-1.57-1.57v-2.71c1-.66,2-.07,2.85-.4.19.33.44.55.44.78,0,2,0,3.95,0,5.92,0,1.27-.5,2.91.11,3.72,1,1.34-.54,2.12-.15,3.2.21.61,0,1.32.62,1.88s.34,1.33.19,2c-1,4-1,4-.07,7.41a3.42,3.42,0,0,1-.25,2.31,6.49,6.49,0,0,0,1.55,7.44c1.28,1.31,2.59,2.59,3.88,3.89-.46,2.32,2.21,3.71,1.77,6.05a167.36,167.36,0,0,1,17.87,5.87,85.51,85.51,0,0,1,13.84,7.35,66.15,66.15,0,0,1,14.85,13.09,108,108,0,0,1,9.19,12.65c1.27,2,2,2.44,4.77,2.67-1.07-2.6-.26-5.31-.6-7.8.53-1,2,0,1.88-1.81l1.56,1.89c-.38,2.24.68,4.91-.72,7.6a49.66,49.66,0,0,0,8.16,6.12c3.43,1.84,4.93,5.22,6.93,8.22-.45,2.82,1.26,4.38,3.36,5.62v4.4c4.32.84,7,3.77,9.09,7.35a10.57,10.57,0,0,1,1,2.1c1.09,3.21,3,5.18,6.65,5.38,1.21.07,2.35,1.08,3.54,1.61,4.32,1.91,8.68,3.75,12.42,6.75.29.24.8.21,1.07.45,4.89,4.54,10.64,8.27,13.52,14.9,2.65-.67,4.77,1.41,7.46.58V559.11c-1.21-.86-1.74-2.55-3.28-3.54-1.24-.79-1.41-2.76-1.6-4.31-.21-1.74.26-3.51-.8-5.19a2,2,0,0,1,.23-2.35c1-1,.26-2.13.59-3.17,1.87-.58,3.65-1.57,5.87-1.14,0-2-.3-3.74,0-5.33,1.39-6.34.64-12.74.76-19.11s0-12.68,0-19.27l-1.3-.95a61.23,61.23,0,0,0-3.48-10.67l3.71-3.7c.09.07.39.35.69.62,1,.19,1.41-.72,2-1.22a5,5,0,0,1-.39-5.38,6.72,6.72,0,0,0,.41-3.2c.06-8.31,0-16.63,0-24.94,0-3.27-.48-6.6.79-9.81a6.68,6.68,0,0,0,0-2.36l-3.21-3.21c-.74-2.64-1.41-5.45-2.35-8.17a6.87,6.87,0,0,1-.35-2c-.09-1.61.12-3.18-.78-4.77-.69-1.2.44-2.55,1-4,1.74-1.36,4.67-1,6.47-3.2.2-4.84.08-9.77.74-14.73s.15-10.13.15-15.2c0-.56-.21-1.25,0-1.67,1.44-2.46.67-5.13.77-7.7.05-1.3.62-2.82-.78-3.9-.14-.1,0-.54,0-.82s-.11-.64,0-.83c1.59-2.48.09-5.46,1.27-7.93a3.56,3.56,0,0,0,.35-2.36c-.5-2.16,1-3.94.94-6s-.62-4.16.8-6c-.65-3.21,1.4-6.2.81-9.37-.38-2,.85-3.66.93-5.57.06-1.72-.73-3.6.76-5.18.28-.3.11-1.1,0-1.65-.56-3.48,1.36-6.75.86-10.22,1.15-1.88.71-4,.88-6a35.7,35.7,0,0,1,1-5.53,36.8,36.8,0,0,0,.68-8.14,4.12,4.12,0,0,1,.53-1.9c.67-1.34.47-1.64-.61-3.92.6-1.06,1.42-2.33.9-3.68-1.49-3.91-.49-8-.89-12.08l2.75-2a2.51,2.51,0,0,1,.49,1c.55,3.81,2.23,7.57.27,11.5-.39.79.35,2.31-.14,2.85-.93,1,0,1.58.08,2.34a2.07,2.07,0,0,1-.56,1.9,1.59,1.59,0,0,0-.24,1.52c1.54,2.32.68,4.86.77,7.29.16,4.26,1.45,8.44.88,12.75,1.44,2.58.92,5.41.76,8.1-.13,2.14,1.28,3.85,1,6s-.6,4.41.08,6.28c.9,2.48.65,4.88.68,7.31,0,4.27,1.49,8.44.87,12.75,1.49,2.87.52,6,.88,8.94.31,2.48.93,4.93,1.49,7.86-1.33,1.39-1.6,3.6-1.55,6,.1,4.08-.14,8.18.07,12.26.4,7.66-1.5,15.23-.9,22.89.08,1,0,1.95,0,2.65.8,2,2.92,1,3.87,2.26l1.19-1.2c-.21-4,1.53-7.86.86-11.9,1.39-2.88.76-5.95.82-8.95,0-2.48,1.24-4.51,2-6.61,1.85-.26,1.11,1.79,2.22,2.08,0,.7,0,1.41,0,2.11-.62,7.38,1.31,14.67.85,22.05,1.42,3.74.69,7.65.83,11.48.08,1.9,1.17,3.55.94,5.58a13.77,13.77,0,0,0,.6,5.6c.7,2.33.1,5,.19,7.56.05,1.32-.35,2.64.67,4a3.36,3.36,0,0,1,.06,3.21c-1.17,1.45-.72,2.93-.73,4.38,0,10.14,0,20.29,0,30.74,1.68-.45,2.83,1.27,4.57,1,2,3,1.59,5.92.36,9.1-1.08,2.79-2.83,5.3-3.45,8.31a10.1,10.1,0,0,0-.63,2.26v29.8c1.75,1.54,4.92.61,5.4,3.77,4.39-7.74,7.57-16,11.54-23.77,0-1.64-1.29-2.65-1.67-4-.29-.82.94-.95.89-1.23l-4.06-4c-.9-4.66,1.37-7.46,2.49-10.5.78-2.14,1.94-3.72.77-6.28-.84-1.85.73-4.06,1.3-6.1.14-.51.22-1.05.29-1.35-.41-2.3-4.36-1.63-3.26-4.89l-2.91-2.34c-.93-2.52-.57-5-.65-7.46a14.61,14.61,0,0,1,1.53-6.13c.73-1.79,2.44-3.3,1.9-5.58-.19-.78.73-1.13,1.2-1.58.77-.73.39-1.52.34-2.32-.59-.65-1.36,0-2.26-.55-2.63-2.28-4.75-5.46-6.92-8.62,0-2.66.1-5.34,0-8a9.77,9.77,0,0,1,3.32-7.93c3.65-3.43,6.35-7.72,10.11-11.06,1.3-1.15,1.9-2.95,3.28-4.15.58-.5,1.3-.35,1.91-.93,0-7.36-.05-14.81,0-22.26,0-1.44-1.17-2.38-1-3.88.16-1.13.61-2.55-.73-3.49-.14-.09,0-.53,0-.8,0-5.64-.27-11.29.15-16.9a26.92,26.92,0,0,1,.82-6c.64-2,.38-4.06.78-6a79.14,79.14,0,0,0,1.63-11.14c1.76-2,.5-4.65,1.53-7,.94-2.13-.48-4.67-1.33-6.92-.56-1.51-1.31-2.94-1.06-4.64a2.59,2.59,0,0,0-.14-1.62c-2.2-3.52-1.4-7.42-1.52-11.2a3.44,3.44,0,0,1,.24-1.58c1.5-2.8.41-5.18-1.14-7.76-.08-.88,1.58-1.5.78-3a4.54,4.54,0,0,0-.33-.49c-1.42-1.65-2.93-3.23-4.31-4.93-1.85-2.26-2.06-4.87-2.77-7.34-.59-2.09.55-4.15,1.6-6s1.31-3.76-.09-5.44c.58-1.26,1.6-.46,2.3-.85,1.34-1.66,1.19-3.74,1.17-5.54,1.14-.59,1.58,0,2,.51.8-.93,2.5-.7,2.89-2,.31-1,0-2.24,1.28-2.87l3.07,1.58a3.31,3.31,0,0,0,2.36-2.1c.64-4.27,3.56-6.9,6.5-9.7h3.86a3.18,3.18,0,0,0-.74,3.14h3.86c.58-.77-.23-1.8.67-2.37,4,1.18,5.17,3,8,9.23.2.91-1.11,1.1-1,2.2,0,.43-.79,1.3-.68,2.39,1,.73,2.08,1.56,3.19,2.39.28.63.68-.71,1.86.21-.62,1.74,1,3.28.9,5.2.67.67,2.09.17,2.15,1.81a3.83,3.83,0,0,0-.54,2.23c.06,2.82,0,5.64,0,8.46a12.45,12.45,0,0,1-3.76,9,19.72,19.72,0,0,1-7.25,5c-.75.27-1,.9-1.87,1.36,1.1,1.35.63,3.15,1.17,4.53a13.74,13.74,0,0,1,.72,5.19c0,1.69.62,3.77-.13,5-1.33,2.14.29,4.74-1.56,6.57.61,2.39-.64,4.58-1,6.8s-.11,4.42-.74,6.42c-1.24,4-.55,8-.73,11.93a11.75,11.75,0,0,0,.73,5.61c.74,1.65-.64,3.87.94,5.52-.61,2.93.94,5.61.93,8.53,0,4.67,1,9.29.81,14-.19,3.7-1.3,7.29-1,11.07a13.17,13.17,0,0,0,3.82,8.85l18.11,2.82,7-7c-3.6-9.05-9.16-17.46-13.36-27.48,4.76,3.44,7,7.63,9.89,11.37,3.25,4.27,5.87,9,9.68,12.84,2.51-.89,4.81-2.09,7.46-1.74,1.27.16,2.08-1.5,3.69-.72,2-8.8,4-17.5,4.65-26.84a7.51,7.51,0,0,0,1.52-5.8c.52-.6.93-.44,1.49-.39,1,5.64-1,11.17-.72,16.82s.08,11.55.08,17.41c2.84,1.53,6.37,1.8,8.79,4.51,5.53-4.22,11-8.51,16.53-12.78,2.33-1.81,4.11-4.36,7-5.53a2.31,2.31,0,0,1,1.18-.16c.61.64.43,1.2-.18,1.74-5.11,4.56-9,10.28-14,14.92-1.8,1.66-2.73,4.13-4.8,5.51-.78,3.73,3.16,5.51,3.35,9.09,2.31-.26,4.47-.22,6.8-.68,2.73-.53,5.72-.35,8.48-1.1,4.25-1.15,8.87-.21,13-2.38a3.35,3.35,0,0,1,3,.21c.11,1.53-.81,1.87-2.16,2.27-5.39,1.58-10.81,3.12-16.06,5.1-3.65,1.38-7.39,2.54-11.17,4,.72,2.26,1.28,4.41-.1,6.5,2.34,1.66,5.32,1.87,8,2.8,4.7,1.6,9.65,2.37,14.33,4.2a20.6,20.6,0,0,0,5.11.82c1.48.16,2.36,1.28,3.72,1.08v2c-.19.14-.39.44-.6.44a5.32,5.32,0,0,1-2.45-.16c-2.61-1.47-5.4-1.5-8.26-1.54-4.82-.07-9.58-1.32-14.44-.81-1.88-1.08-3.94-.89-6-.82l-1.42,1.42c1.5,1.28.58,3.45,1.72,5.05-1,1.22-2.63,1.54-4,2.31a37.88,37.88,0,0,0,2.27,15.06c.64,1.95.06,3.7-.84,5.47-.79.32-1.77.51-2.08,1.11l3.2,15.73c2.47.77,4,2.76,5.26,4.6,1,1.54,2.87,2.54,3.16,4.59a1.5,1.5,0,0,0,.87.88c3.76,1.44,5,5.19,7,8.08a22,22,0,0,1,3.09,9.24,27.47,27.47,0,0,0,1.66,6.5c.77,1.94.73,4.14,1.73,6.05s.33,4,1.69,5.64c.07.09,0,.28,0,.42-.66,3.48,1.23,6.75.79,10.35,1.3,1.27,1.33,3.38,2.89,4.69,3-1.77,4.4-5.05,6.75-7.45s5.77-3.63,8.18-6.4a34,34,0,0,1,1.67-12.16.89.89,0,0,0,0-.43c-.53-3.75,1.33-7.3.87-11.06-.24-1.9,1.11-3.54.92-5.57-.17-1.81-.78-3.85.69-5.6.35-.42.13-1.38,0-2.07-.5-3.89,1.37-7.6.86-11.49,1.43-2.58.9-5.4.77-8.1-.12-2.26,1.2-4.15,1-6.42-.18-2-.6-4.14.78-6-.59-3.62.93-7.07.84-10.64a48.22,48.22,0,0,0-.72-9.4c-.87-3.89.28-7.88,1-11.92l1.07-.22a13.17,13.17,0,0,0,1.18-7.06c-.2-1.82,1.14-3.26,1-5.16-.16-1.67-.85-3.64.75-5.14-.6-2.65,1.27-5.09.79-7.66-.36-1.93,1.11-3.31,1-5.16a13.07,13.07,0,0,1,.31-5.33c.34-1-.52-2.31.46-3.34-.59-3.89,1.49-7.62.8-11.47-.34-1.91,1-3.33,1-5.16s-.55-3.59.77-5.16c.14-.16,0-.55,0-.83-.59-4.44,1.17-8.75.82-13.17-.14-1.82,1.14-3.26,1-5.15-.15-1.67-.83-3.58.7-5.19.35-.37,0-1.36,0-2.06.07-2.59-.49-5.24,1.14-7.45a35.93,35.93,0,0,0-8.7-7.78c0-3,0-3,.79-4.59-2.34-2.12-1.79-5.23-2.39-7.86a27.23,27.23,0,0,1-.07-8.83,29,29,0,0,1,2-8,32.46,32.46,0,0,1,4.54-7.47,30.34,30.34,0,0,1,6-6.16c2.23-1.58,4.39-3.4,7.06-4.31s5.2-1.76,8.1-2.74c1.32-6.06,3.48-12.25,1.73-18.67l2.79-2.79c-.88-4,1.09-7.94.75-12.09,2-2.65.15-5.84,1.33-8.75,1.09-2.69.18-5.79.38-8.61-3.18-4.06-5.39-8.3-3.88-13.93,1-1.29,1.64-3.42,3.22-4.93.28-.26.64-.69.6-1-.22-1.6.61-2.85,1.21-4.17s1.31-2.56,2.21-4.3c0-1.16.11-2.84,0-4.5-.16-1.83,1-3.28,1-5.15a12.67,12.67,0,0,1,.86-4.66,28.53,28.53,0,0,0,1.16-4.56c.54-2.46,1.57-4.93,1.22-7.55-.1-.8.16-1.57-.38-2.39-.79-1.2-.52-2.34.23-3.75a28.2,28.2,0,0,0,2.81-9.42c.66-4.56,1.69-9.05,1.57-13.69,0-.42-.18-1,0-1.24,1.74-1.51.27-2.94-.14-4.28l1-1.05c-1.38-2.28-.77-4.81-.87-7.25a8.67,8.67,0,0,1,1.87-5.56,12.12,12.12,0,0,0,1.62-4.42c.83-3.28.25-6.61.85-9.8s.14-6.38.88-9.35a32.16,32.16,0,0,0,.65-8.14,40.36,40.36,0,0,1,1.73-13.25c-.65-2.66,1.3-5,.82-7.68-.27-1.46,1.47-2.37.9-3.79.35-.77,1.51,0,1.66-1,.13-.63-.3-1-.8-1.44l2.49-1.42c0,2.1.39,4.14-.11,5.93s-.56,3.81-2.69,4.79a5.47,5.47,0,0,1,1,5.61,11.6,11.6,0,0,0-.66,5.21c0,4.84-1.5,9.57-.88,14.44-1.82,2.82-.29,6.11-1.36,9.15-1,2.88-.28,6.1-.28,9.17a4,4,0,0,1-1.06,2.33c.73,1.24,1.34,2.15,3.06,1.71l-1.35,1.53c1.29,1.37,1,3.16,1,4.9-1.19,1-1.12,2.72-2.14,3.79a2.1,2.1,0,0,0-.36,2c.22,1.54,1.71,3.15.51,4.57s.36,3.21-1.38,4.11c.68,3.11-1.74,5.6-1.7,8.59s0,5.92,0,9.13c1.28.92,2,2.74,4.26,3.15-.16,4.24-2.33,7.47-5.11,10.43a54.25,54.25,0,0,0,.06,6.75c.32,2.55-1.19,4.75-1,7.27a44.13,44.13,0,0,1,0,7.18c-.1,1.29-1.28,2.42-.55,4.34l1.69,1.24c-1.43,2.73,2.17,5.26-.17,7.87,2.51,3,4,6.53,3.22,10.43-.78,3.72-2.52,7.08-6.75,8.6.61,4.75-1,9.26-.94,14,0,2.33-1.11,4.88-.56,7.22.39,1.65-.14,3.25.57,5s.16,3.88.16,5.86v5.91c0,2,0,4,0,5.92.06,3.29-1.63,6.43-.61,10,3.51,1.16,6.46,3.76,9.39,6.19s4.91,6,6.92,9.33c1,1.62,2.91,9,2.89,10.64,0,4,.42,8-.87,11.9-1.2,3.61-2.52,7.19-5,10-.33,1,.85,1.14.81,1.87-.09.27-.09.6-.25.76-1.62,1.63-3.12,3.28-5.68,3.69-1.31.21-2.54,1.39-3.64,2.33a13.47,13.47,0,0,1-3.42,1.88c-1.72,2.74-1.42,5.5-1.37,8.22,0,1.78-1.18,3.27-.93,5.15.23,1.71.46,3.58-.77,5.14-.07.09,0,.28,0,.42.63,4.45-1.14,8.76-.79,13.17.14,1.74-1.2,3-1,4.73s.52,3.56,0,5c-1.12,2.86-.63,5.71-.71,8.56-.06,1.78-1.17,3.27-1,5.16.21,1.7.51,3.58-.77,5.14-.07.08,0,.28,0,.41.54,4-1.28,7.9-.83,11.91.2,1.82-1.25,3.25-.92,5.16a10.26,10.26,0,0,1,0,5c-.88,2.44-.23,5-.85,7.27-.89,3.28-.69,6.54-.71,9.82,0,1.78-1.17,3.27-.94,5.15.21,1.71.5,3.58-.77,5.14-.07.09,0,.28,0,.42.54,4-1.29,7.89-.83,11.9.21,1.82-1.26,3.26-.92,5.16a10.26,10.26,0,0,1,0,5c-.89,2.44-.26,5-.85,7.27-.72,2.87-.21,5.81-.87,8.52-.76,3.17-.2,6.35-.84,9.38-.55,2.59-.24,5.23-.85,7.67s-.24,4.95-.82,7.26c-.83,3.29-.1,6.69-.9,9.78s-.39,6.25-.73,9.31a27.31,27.31,0,0,0,10.35,1.16c2.12,1.24,2.43,3.58,4.12,4.78-.27,1.65-1.87,2.11-2.59,3.56a6.49,6.49,0,0,1,0,1c-.48,4-.56,4.26,1,7.33a36.18,36.18,0,0,1,3.15,10.09c.39,2.11,1.6,4.14.55,7l-2,2c-.68,2.21,1.21,2.75,1.59,3.68-2.33,11.5-8.9,19.68-17.9,26.31,2.34,4.64,4.29,9.47,6.19,14.32a14.72,14.72,0,0,0,2.52,1,14.2,14.2,0,0,0,2.81,0c1,1.64,3.06,2.11,4.78,3.09,2.08,1.19,2.11,1.14,2.6,3.36l13.26,3.38a1.49,1.49,0,0,1,1-.57c1.19-.12,2.41.46,3.57-.6s1.87,1.21,3.37.73c1.75-.56,3.7.15,5.59-.85,1.6-.85,3.43.51,5,.92,2.31.59,4.77.54,6.94,1.55s4.32.47,6.41.89c3.6.73,7.28,1.39,10.08,4.24,3.26,3.33,7,5.76,11.93,5.9,1.27,0,2.42,1.3,3.68.7,2.16,1.08,2.44,3.5,4.12,4.72-.54,2.12,1.28,3.85.91,6a19.45,19.45,0,0,0,0,4.64,21.74,21.74,0,0,1-.84,6c-.38,1.83.52,3.79-.82,5.59-.85,1.14.8,2.44.11,4-.56,1.26-.11,3-.11,4.43,1.23.32,2.27.57,3.06-1,.19.9.27,1.29.4,1.94a4,4,0,0,1,5,.21l1.32-.9c.19.5.37,1,.55,1.49,1,.28,2.06.48,2.85-1,.19.89.27,1.28.38,1.8l4.58-1.42c.36,1.71,2-1,2.39,1.17l1.43-2h5.65c-.22-2,2.22-3.77.54-6,.77-2,.45-4.17.53-6.25l2.82-2.83h5.22l2,1.89c.59,1.19-.68,1.46-.83,2.32-.43,2.43.59,4.63,1.08,6.81.39,1.78.94,3.17-.11,4.87-.36.59-.06,1.59-.06,2.32.76.28.82-.29,1.14-.44,1.88,2.54,2.8,2.82,5.16,1.6,2.72,2.16,6.14,1.61,9.76,3l.9,1.46,1.31-1.16c.19.52.36,1,.55,1.57.87-.13,1.16-1,2-1.6a6.42,6.42,0,0,0,4.34.86c.11.94.19,1.61.3,2.58.85-.28,1.2-1.05,1.85-1.53a3.86,3.86,0,0,1,3.92.87c2.76-2.56,5.63-2.53,8.26.39l-.59.68c.18.14.45.46.58.41a8.49,8.49,0,0,0,3.28-1.68c1.23.06,1.57,1,2.18,1.48s1.21,1.18,1.91,1.88c.65-.88.7-2.31,2.15-2.5,1.26,0,1.49,1.82,3.05,1.77,1.39,0,2.69,1.25,4.22.67.51-.29.29-.76.34-1.17.63-.76.8.17,1.25.36l.84-.74,1.14,1,1.4-2.12c.34.82.54,1.3.89,2.16l1.38-2.78c.61,2,1.61,2.78,1.61,3.7l2.13-2.13c1.58.39.86,1.5,1.6,1.79l1-.87c.19.54.36,1,.54,1.52.53.29.57-.36.92-.47,1.47.27,2.13,1.79,3.12,2.46,1.16-.36.5-1.45,1.22-1.77.61.3.29,1,.62,1.45.73.31.89-1,1.66-.61.8.07.71.67.69,1.21,1.29,1.25,3.29.94,4.66,2.07,1.67-1.25,3.39-.91,5.58,0l1-1.48a1.68,1.68,0,0,1,1.46.37c1.12.7.67,2,1,3.27l1.61-1.9H1922c.36.22.27.66.28,1.07.55.89.78,0,1.15-.21l1.28.72c1.27,0,1.44-1.67,3.06-1.71.89.87,1.88,2.19,3.74,2.2l.46-.46,1.75,1.63c1-1.79,2.9.47,4-.82,1.23,1.35,2.85.65,4.43.91.72.38,1,1.51,1.64,1.58,1.7.14,1-1.06,1.49-1.44,1.07,0,1.22,1.34,2.28,1.5.58.11.86-.45,1.45-1,.35,1.76,2.89,1.28,3,3.29,1.13,0,1.31-1.74,2.5-1.52.8.23.61.87.84,1.84l1.95-1.79h1.8l.54,1.5c.86-.15,1.16-1,1.78-1.44,1,.14.14,1.3,1.12,1.64,3-2.11,5.9-.25,8.85.81l1.22-.74.65.65c1-.33,1.24-1.93,2.71-1.54.79.54,0,1.58.54,2.26.72.42.6-.87,1.1-.58,1-.29,1.24.65,1.37.68,1.2.24,1.5-.29,2-.79.12,2,2.38,1.81,3.12,3.29.87-.48,1.92-.6,2.7-1.53l3.45,3.36c1.63,0,.92-1.17,1.77-1.71,1,.44,2.28.6,3.22,1.69l.91-.82c1.65-.35,1.94,2.42,3.78,1.69V903.66H0Zm719-92.44a15.31,15.31,0,0,0-7.86,6.16c-1.91,2.74-4.19,5.29-5.88,7.68l2.24,2c.39-.59,1.29-.24,2.2-.32,1.64-2.36,4.16-3.7,7-5.06h3.74l5.42-3.39c2.34,0,4.61.16,6.85,0,2.86-.25,4.88,1,6.89,2.85,1.25,1.17,1.47,3.39,3,3.74s1,1.45,1.7,1.9H746c1.35,1.67,3.36,2.81,4.17,5,.15.4.82.67,1.24,1,1.5,1.08,3.15.64,4.17,1.4l3.6,3.05c-1.28,2.26-1.12,4.78-.81,7.32a6.73,6.73,0,0,1,1.53,0c1.33.35,2.12-1.08,3.46-.92a4.8,4.8,0,0,0,3.93-.72,2.9,2.9,0,0,1,2.42.07c3.76,1.59,7.55.31,11.1.62,1.17-3.07-3.09-3.45-2.34-6,1.47-2.46,3.74-3.5,6.3-4.09a2.26,2.26,0,0,0,3.06.5,5.62,5.62,0,0,1,1.57-4.93h5.15v-2.83c.66-.63,1.39-1.9,2.07-1.88,1.77.06,1-1.83,2.05-2.15.17-3.92,3.47-5.66,5.73-8.33H808c.25-.6-.11-1.28.69-1.41,1,.56-.53,2.08,1.1,2.47,2.49-.44,1.27-3.23,2.69-4.23-.43-.94-1.19-1.42-1-2.41a20.4,20.4,0,0,0,0-3.29l-1.4-1,.52-.6a14.7,14.7,0,0,0-3.21-2.44c-9.27-4.8-11.86-5.8-22.43-8.08-1.24-1.83-3.33-.29-5-1.32s-3.81-.22-5.74-.38c-2.29-.19-4.61.43-6.88-.75a2.93,2.93,0,0,0-3.16.29c-.61.6-1.27.44-1.93.46a48.53,48.53,0,0,0-8.13.71c-3.14.58-6.23,1.37-9.27,2.19a64.48,64.48,0,0,0-13.76,5.52,81.28,81.28,0,0,0-13.27,8.73c-.16.13-.15.49-.23.81ZM744,492c11.38,0,22.5,0,33.62,0,2.29,0,4.68-.65,6.86.77a1.79,1.79,0,0,0,1.64,0c1.79-1.41,4-.37,5.84-1,.72-3.32-1.32-6.28-.74-9.46-1.32-.9-1-2.33-.78-3.44.35-1.55-1.19-2.43-.94-3.9.44-2.61-1.45-5-.82-7.67-1.7-4.86-2-9.95-2.53-15,0-.41.18-1,0-1.23-1.62-1.54-.22-3.59-.89-5.14a12.36,12.36,0,0,1-.77-5.05l-1.26-1.29h-30.4c-1.78,2.08-.93,4.93-2.16,7.16.11,5.05-1.71,9.89-1.69,14.93a3,3,0,0,1-.33,1.56c-1,1.77-.94,3.91-1.17,5.79-.33,2.55-1.61,5-1,7.66-1.2,1.71-.19,4-1,5.48-.95,1.7-.08,3.37-.76,4.77A8.75,8.75,0,0,0,744,492Zm805.8-88.67c.61,2,.61,2-.42,6.23l2.86,2c1.77-.36,4,2,5.44,1.2,2.36-2,1.29-4.33,2.75-5.75C1557.14,405,1553.46,404.18,1549.79,403.32ZM995.7,545.75c-2.13-.2-3.65-1.47-5.24-2.28s-2.59-1.1-4.14-.26c-1.2.66-2.42.41-3.78-.39s-2.9-1.94-4.46-.52c-.76.68-1.71,0-2.3.58-1.16,1.08-2,.56-3.25,0-2.26-1-4.74-1.47-6.94.66-.69.66-1.86.82-3,1.28a4.15,4.15,0,0,0,3.79.35c2.9-1.84,5.08-.1,7.43,1,1.81-1,4-1.08,5.33-2.28,1.91.83,3.54,1.87,5.29,2.17s3.47-.76,5.21-1.47c.8,1.34,2.29,1.72,3.58,2.44Z"/><path d="M967.88,494.57v-3l1.59-1.58V472c-.82-.61-1.43,1.44-2.32.23a2.25,2.25,0,0,1,2.13-1.49c.67-.95,0-2.15.39-3.25a6.16,6.16,0,0,1,1.32.15c1.82.66.34,3,2,3.6a16.19,16.19,0,0,0-.19,9.69c.75,3.06.16,6.44.16,9.64.24.71.88.51,1.38.66.65.88.17,1.88.31,2.82L973,495.83c-.33,1.74,1.39,3,.85,4.78s.4,3.57,1,5.08a11.14,11.14,0,0,1,.6,4.82c-2.79-1.83-5.45-.13-8.44.15.54-5.16,2-9.87,2.75-14.87Z"/></svg>