<svg id="Capa_1" data-name="Capa 1" xmlns="http://www.w3.org/2000/svg" viewBox="0 0 79.3 100"><defs><style>.cls-1{fill:#aad1e6;}</style></defs><title>WEB CELESTE 79x100 </title><path class="cls-1" d="M66.72,0H12.58A12.58,12.58,0,0,0,0,12.58V66.72A12.58,12.58,0,0,0,12.58,79.3H66.72A12.58,12.58,0,0,0,79.3,66.72V12.58A12.58,12.58,0,0,0,66.72,0ZM39.77,73.59A6.59,6.59,0,1,1,46.36,67,6.59,6.59,0,0,1,39.77,73.59Zm4.75-23.78-9.75,3.64L29.22,6H50.33Z"/><path class="cls-1" d="M37.87,79.3l-9,20.7h7c3.5,0,6.71-2.41,8.31-6.24L50.28,79.3Z"/></svg>