<svg width="80" height="100" viewBox="0 0 80 100" fill="none" xmlns="http://www.w3.org/2000/svg">
<g clip-path="url(#clip0_293_667)">
<path d="M66.72 0H12.58C9.24358 0 6.0438 1.32539 3.6846 3.6846C1.32539 6.0438 0 9.24358 0 12.58L0 66.72C0 70.0564 1.32539 73.2562 3.6846 75.6154C6.0438 77.9746 9.24358 79.3 12.58 79.3H66.72C70.0564 79.3 73.2562 77.9746 75.6154 75.6154C77.9746 73.2562 79.3 70.0564 79.3 66.72V12.58C79.3 9.24358 77.9746 6.0438 75.6154 3.6846C73.2562 1.32539 70.0564 0 66.72 0V0ZM39.77 73.59C38.4666 73.59 37.1925 73.2035 36.1088 72.4794C35.0251 71.7553 34.1804 70.726 33.6816 69.5219C33.1829 68.3177 33.0523 66.9927 33.3066 65.7144C33.5609 64.436 34.1885 63.2618 35.1102 62.3402C36.0318 61.4185 37.206 60.7909 38.4844 60.5366C39.7627 60.2823 41.0877 60.4129 42.2919 60.9116C43.4961 61.4104 44.5253 62.2551 45.2494 63.3388C45.9735 64.4225 46.36 65.6966 46.36 67C46.36 68.7478 45.6657 70.424 44.4298 71.6598C43.194 72.8957 41.5178 73.59 39.77 73.59ZM44.52 49.81L34.77 53.45L29.22 6H50.33L44.52 49.81Z" fill="white"/>
<path d="M37.87 79.2998L28.87 99.9998H35.87C39.37 99.9998 42.58 97.5898 44.18 93.7598L50.28 79.2998H37.87Z" fill="white"/>
</g>
<defs>
<clipPath id="clip0_293_667">
<rect width="79.3" height="100" fill="white"/>
</clipPath>
</defs>
</svg>
