<svg width="27" height="27" viewBox="0 0 27 27" fill="none" xmlns="http://www.w3.org/2000/svg">
<path d="M13.5 26.9333C11.6055 26.9333 9.84026 26.5889 8.20415 25.9C6.56804 25.2111 5.14721 24.2639 3.94165 23.0583C2.73609 21.8528 1.78887 20.4319 1.09998 18.7958C0.411095 17.1597 0.0666504 15.3944 0.0666504 13.5C0.0666504 11.6055 0.411095 9.84026 1.09998 8.20415C1.78887 6.56804 2.73609 5.14721 3.94165 3.94165C5.14721 2.73609 6.56804 1.78887 8.20415 1.09998C9.84026 0.411095 11.6055 0.0666504 13.5 0.0666504C15.3944 0.0666504 17.1597 0.411095 18.7958 1.09998C20.4319 1.78887 21.8528 2.73609 23.0583 3.94165C24.2639 5.14721 25.2111 6.56804 25.9 8.20415C26.5889 9.84026 26.9333 11.6055 26.9333 13.5C26.9333 15.3944 26.5889 17.1597 25.9 18.7958C25.2111 20.4319 24.2639 21.8528 23.0583 23.0583C21.8528 24.2639 20.4319 25.2111 18.7958 25.9C17.1597 26.5889 15.3944 26.9333 13.5 26.9333ZM13.5 9.5604C13.8444 9.5604 14.1351 9.44738 14.3719 9.22134C14.6087 8.9953 14.7271 8.71005 14.7271 8.36561C14.7271 7.99964 14.6087 7.69825 14.3719 7.46144C14.1351 7.22464 13.8444 7.10623 13.5 7.10623C13.134 7.10623 12.838 7.22464 12.612 7.46144C12.3859 7.69825 12.2729 7.99964 12.2729 8.36561C12.2729 8.71005 12.3913 8.9953 12.6281 9.22134C12.8649 9.44738 13.1555 9.5604 13.5 9.5604ZM12.4344 20.2167H14.7916V12.2083H12.4344V20.2167Z" fill="white"/>
</svg>
