<svg width="112" height="108" viewBox="0 0 112 108" fill="none" xmlns="http://www.w3.org/2000/svg">
<path d="M81.9431 17.9118C86.8343 17.9118 90.7994 13.9467 90.7994 9.05548C90.7994 4.16427 86.8343 0.199158 81.9431 0.199158C77.0519 0.199158 73.0868 4.16427 73.0868 9.05548C73.0868 13.9467 77.0519 17.9118 81.9431 17.9118Z" fill="#FF9C06"/>
<path d="M112 75.2876C112 73.7946 110.79 72.5842 109.297 72.5842H105.817V65.3595C106.792 64.4642 107.343 63.1326 107.178 61.7167L103.544 30.5268C103.373 25.1029 98.8941 20.7343 93.4362 20.7343H81.9475C81.946 20.7343 81.9446 20.7346 81.9431 20.7346C81.9417 20.7346 81.9402 20.7343 81.9387 20.7343H70.4501C68.212 20.7343 66.1392 21.4699 64.4601 22.7104C65.997 25.0275 66.9018 27.7974 66.9166 30.7725L66.9994 47.2414C69.0077 30.0055 68.8823 31.1835 68.884 30.8387C68.8864 30.371 69.2665 29.9939 69.734 29.9951C70.2015 29.9963 70.5796 30.3756 70.5796 30.8429C70.5801 37.668 70.5816 64.548 70.5816 65.0977C73.6422 66.079 75.8645 68.9507 75.8645 72.3329V99.9757C75.8645 102.469 74.6573 104.685 72.7968 106.071C72.7708 106.319 72.7306 106.563 72.6792 106.802C73.5287 107.427 74.5743 107.8 75.7094 107.8C78.5414 107.8 80.8372 105.504 80.8372 102.672V61.686H83.0512V102.673C83.0512 105.505 85.3471 107.801 88.179 107.801C91.011 107.801 93.3069 105.505 93.3069 102.673L93.2165 31.4197C93.2158 30.9374 93.5915 30.5383 94.0731 30.5098C94.5547 30.4813 94.9755 30.8331 95.031 31.3123L98.6886 62.706C98.8676 64.2416 99.8413 65.4885 101.15 66.0914V72.5842H97.6697C96.1766 72.5842 94.9662 73.7946 94.9662 75.2876V101.149C94.9662 102.642 96.1766 103.852 97.6697 103.852H109.297C110.79 103.852 112 102.642 112 101.149V75.2876Z" fill="#FF9C06"/>
<path d="M11.057 20.1952L11.8661 12.4275C11.9172 11.9357 11.5602 11.4957 11.0684 11.4443L2.32798 10.5339C1.83613 10.4828 1.39615 10.8397 1.34478 11.3316L0.00487446 24.1954C-0.0462576 24.6873 0.310693 25.1273 0.802535 25.1786L1.69321 25.2714C2.26662 24.035 3.12905 22.9111 4.27246 22.0131C6.10615 20.5726 8.523 19.839 11.057 20.1952Z" fill="#FF9C06"/>
<path d="M40.6439 17.9118C45.5241 17.9118 49.5002 13.9498 49.5002 9.05548C49.5002 4.16433 45.5351 0.199158 40.6439 0.199158C35.7528 0.199158 31.7876 4.16433 31.7876 9.05548C31.7876 13.9649 35.7778 17.9118 40.6439 17.9118Z" fill="#FF9C06"/>
<path d="M71.1973 72.3337C71.1973 70.7155 69.8854 69.4033 68.267 69.4033H65.0466V61.919C65.0466 60.8404 64.1723 59.9658 63.0934 59.9658H62.396L62.3727 55.2989L62.2495 30.7961C62.2215 25.2478 57.6851 20.7343 52.137 20.7343C51.6663 20.7343 39.7314 20.7343 29.1509 20.7343C24.8668 20.7343 21.1882 23.4268 19.7205 27.2076C18.9126 29.289 19.0389 30.6963 19.0255 33.3851L12.6401 25.5651C11.1475 23.7372 8.45557 23.4648 6.62747 24.9578C4.8454 26.4129 4.54713 29.0058 5.91625 30.829C5.95155 30.876 5.98272 30.9245 6.02022 30.9702L19.9291 48.0045C21.0769 49.4099 22.9751 49.9281 24.6637 49.3305C26.3635 48.7296 27.5032 47.1263 27.5123 45.3233C27.5196 43.873 27.5778 32.2863 27.5851 30.8392C27.5875 30.3715 27.9678 29.9943 28.4351 29.9956C28.9026 29.9968 29.2805 30.3761 29.2805 30.8436C29.2805 37.2164 29.2805 60.143 29.2805 61.6858H29.2824C29.2824 62.4248 29.2824 101.481 29.2824 102.673C29.2824 105.505 31.5782 107.801 34.4102 107.801C37.2422 107.801 39.538 105.505 39.538 102.673V61.686H41.7521V68.0191C42.8621 66.4162 44.5719 65.2584 46.5546 64.8747C46.5546 61.5631 46.5522 61.9293 46.5604 61.6858C46.669 58.5706 48.939 55.9967 51.9147 55.4209C51.9147 53.0564 51.9147 36.4019 51.9147 30.7793C51.9147 30.2853 52.3152 29.8848 52.8093 29.8848C53.3033 29.8848 53.7038 30.2851 53.7041 30.7791C53.7041 30.7988 53.7038 30.819 53.7033 30.8392L53.7043 31.0292L53.8263 55.2991L53.8497 59.966H53.1747C52.0961 59.966 51.2215 60.8404 51.2215 61.9193V69.4036H48.0011C46.3829 69.4036 45.0708 70.7155 45.0708 72.3339V99.9767C45.0708 101.595 46.3827 102.907 48.0011 102.907H48.1005V105.338C48.1005 106.627 49.1453 107.672 50.4338 107.672C51.7226 107.672 52.7671 106.627 52.7671 105.338V102.907H63.5007V105.338C63.5007 106.627 64.5455 107.672 65.8341 107.672C67.1228 107.672 68.1674 106.627 68.1674 105.338V102.907H68.2667C69.8852 102.907 71.1971 101.595 71.1971 99.9767V72.3337H71.1973ZM61.1404 69.4033H55.1277V65.2475C55.9001 66.0123 56.9622 66.4844 58.1336 66.4844C58.1409 66.4844 58.1484 66.4844 58.1555 66.4844C59.3206 66.4785 60.3732 66.0057 61.1401 65.2458V69.4033H61.1404Z" fill="#FF9C06"/>
</svg>
