<svg width="33" height="33" viewBox="0 0 33 33" fill="none" xmlns="http://www.w3.org/2000/svg">
<path d="M16.5411 11.1931C13.5963 11.1931 11.1932 13.5962 11.1932 16.541C11.1932 19.4857 13.5963 21.8888 16.5411 21.8888C19.4858 21.8888 21.889 19.4857 21.889 16.541C21.889 13.5962 19.4858 11.1931 16.5411 11.1931ZM32.5807 16.541C32.5807 14.3264 32.6008 12.1319 32.4764 9.9213C32.352 7.35367 31.7663 5.07491 29.8887 3.19734C28.0071 1.31575 25.7324 0.734023 23.1648 0.609653C20.9502 0.485284 18.7557 0.505344 16.5451 0.505344C14.3305 0.505344 12.136 0.485284 9.92545 0.609653C7.35783 0.734023 5.07906 1.31976 3.20149 3.19734C1.3199 5.07892 0.738173 7.35367 0.613804 9.9213C0.489434 12.1359 0.509494 14.3304 0.509494 16.541C0.509494 18.7515 0.489434 20.95 0.613804 23.1606C0.738173 25.7282 1.32391 28.007 3.20149 29.8846C5.08307 31.7662 7.35783 32.3479 9.92545 32.4722C12.14 32.5966 14.3345 32.5766 16.5451 32.5766C18.7597 32.5766 20.9542 32.5966 23.1648 32.4722C25.7324 32.3479 28.0111 31.7621 29.8887 29.8846C31.7703 28.003 32.352 25.7282 32.4764 23.1606C32.6048 20.95 32.5807 18.7555 32.5807 16.541ZM16.5411 24.7694C11.9876 24.7694 8.31266 21.0945 8.31266 16.541C8.31266 11.9874 11.9876 8.31252 16.5411 8.31252C21.0946 8.31252 24.7695 11.9874 24.7695 16.541C24.7695 21.0945 21.0946 24.7694 16.5411 24.7694ZM25.1065 9.89723C24.0434 9.89723 23.1848 9.03868 23.1848 7.97552C23.1848 6.91236 24.0434 6.05382 25.1065 6.05382C26.1697 6.05382 27.0282 6.91236 27.0282 7.97552C27.0285 8.22797 26.9791 8.47801 26.8826 8.7113C26.7861 8.9446 26.6446 9.15657 26.4661 9.33508C26.2876 9.51359 26.0756 9.65513 25.8423 9.75159C25.609 9.84805 25.359 9.89754 25.1065 9.89723Z" fill="white"/>
</svg>
