<svg width="31" height="29" viewBox="0 0 31 29" fill="none" xmlns="http://www.w3.org/2000/svg">
<path d="M2.8125 28.5V26.1424H4.25C4.875 26.1424 5.50521 26.024 6.14062 25.7872C6.77604 25.5504 7.39583 25.1305 8 24.5277C8.60417 25.1305 9.22396 25.5504 9.85938 25.7872C10.4948 26.024 11.125 26.1424 11.75 26.1424C12.3542 26.1424 12.9844 26.0186 13.6406 25.771C14.2969 25.5235 14.9167 25.0982 15.5 24.4954C16.125 25.1198 16.75 25.545 17.375 25.771C18 25.9971 18.625 26.1101 19.25 26.1101C19.8542 26.1101 20.4844 25.9917 21.1406 25.7549C21.7969 25.5181 22.4167 25.0982 23 24.4954C23.5833 25.0982 24.2031 25.5235 24.8594 25.771C25.5156 26.0186 26.1458 26.1424 26.75 26.1424H28.1875V28.5H26.75C26.1458 28.5 25.526 28.4085 24.8906 28.2255C24.2552 28.0425 23.625 27.7141 23 27.2405C22.375 27.7141 21.7448 28.0425 21.1094 28.2255C20.474 28.4085 19.8542 28.5 19.25 28.5C18.6458 28.5 18.026 28.4085 17.3906 28.2255C16.7552 28.0425 16.125 27.7141 15.5 27.2405C14.875 27.7141 14.2448 28.0425 13.6094 28.2255C12.974 28.4085 12.3542 28.5 11.75 28.5C11.1458 28.5 10.526 28.4085 9.89062 28.2255C9.25521 28.0425 8.625 27.7141 8 27.2405C7.375 27.7141 6.74479 28.0425 6.10938 28.2255C5.47396 28.4085 4.85417 28.5 4.25 28.5H2.8125ZM15.5 9.76874C14.8125 9.76874 14.2292 9.51576 13.75 9.0098C13.2708 8.50384 13.0312 7.89562 13.0312 7.18512C13.0312 6.49615 13.2708 5.89869 13.75 5.39273C14.2292 4.88677 14.8125 4.63379 15.5 4.63379C16.1875 4.63379 16.7708 4.88677 17.25 5.39273C17.7292 5.89869 17.9688 6.49615 17.9688 7.18512C17.9688 7.89562 17.7292 8.50384 17.25 9.0098C16.7708 9.51576 16.1875 9.76874 15.5 9.76874ZM11.75 23.0098C11.0625 23.0098 10.3906 22.8322 9.73438 22.4769C9.07812 22.1217 8.5 21.6426 8 21.0398C7.72917 21.3197 7.41667 21.5996 7.0625 21.8795C6.70833 22.1594 6.36458 22.4177 6.03125 22.6546C5.19792 22.4608 4.23958 22.197 3.15625 21.8633C2.07292 21.5296 1.02083 21.169 0 20.7814C1.20833 20.2862 2.72396 19.791 4.54688 19.2958C6.36979 18.8007 8.02083 18.4239 9.5 18.1655L11.2187 12.5138C11.3854 11.8464 11.7656 11.3781 12.3594 11.109C12.9531 10.8399 13.5521 10.8668 14.1562 11.1897L17.375 12.9337L21 10.9637L23.125 5.86101L22.5 4.14937L24.125 0.5L27.875 2.24394L26.3125 5.9256L24.6562 6.57151L19.9375 17.9394C21.8125 18.1978 23.8073 18.6015 25.9219 19.1505C28.0365 19.6995 29.7292 20.2432 31 20.7814C29.9583 21.169 28.901 21.535 27.8281 21.8795C26.7552 22.224 25.8021 22.4823 24.9688 22.6546C24.6354 22.3962 24.2917 22.1324 23.9375 21.8633C23.5833 21.5942 23.2708 21.3197 23 21.0398C22.5 21.6426 21.9219 22.1217 21.2656 22.4769C20.6094 22.8322 19.9375 23.0098 19.25 23.0098C18.5625 23.0098 17.8906 22.8322 17.2344 22.4769C16.5781 22.1217 16 21.6426 15.5 21.0398C15 21.6426 14.4219 22.1217 13.7656 22.4769C13.1094 22.8322 12.4375 23.0098 11.75 23.0098ZM18.1562 17.7457L19.5312 14.3547L17.375 15.485L15.125 14.387L14.1562 17.6488C14.4479 17.6488 14.6979 17.6488 14.9062 17.6488C15.1146 17.6488 15.3646 17.6488 15.6562 17.6488C16.0521 17.6488 16.4479 17.6542 16.8438 17.6649C17.2396 17.6757 17.6771 17.7026 18.1562 17.7457Z" fill="white"/>
</svg>
