<svg width="30" height="29" viewBox="0 0 30 29" fill="none" xmlns="http://www.w3.org/2000/svg">
<path fill-rule="evenodd" clip-rule="evenodd" d="M0.753601 2.66583C0.753601 2.03619 1.00373 1.43233 1.44895 0.987104C1.89418 0.541877 2.49804 0.291751 3.12768 0.291751H26.7936C27.1056 0.291242 27.4147 0.352282 27.7031 0.471379C27.9915 0.590476 28.2536 0.765289 28.4744 0.985811C28.6951 1.20633 28.8702 1.46823 28.9897 1.75651C29.1091 2.0448 29.1704 2.3538 29.1703 2.66583V26.3318C29.1706 26.6438 29.1094 26.9529 28.9902 27.2414C28.8709 27.5298 28.696 27.7919 28.4754 28.0126C28.2548 28.2334 27.9928 28.4084 27.7044 28.5278C27.4161 28.6472 27.107 28.7086 26.7949 28.7084H3.12768C2.81581 28.7084 2.50699 28.647 2.21886 28.5276C1.93074 28.4082 1.66897 28.2332 1.4485 28.0126C1.22803 27.792 1.05318 27.5301 0.933947 27.242C0.814714 26.9538 0.753432 26.6449 0.753601 26.333V2.66583ZM12.0014 11.1263H15.8493V13.0586C16.4047 11.9478 17.8256 10.948 19.9607 10.948C24.054 10.948 25.024 13.1606 25.024 17.2203V24.7404H20.8816V18.1452C20.8816 15.8331 20.3262 14.5285 18.9157 14.5285C16.9589 14.5285 16.1451 15.9351 16.1451 18.1452V24.7404H12.0014V11.1263ZM4.89727 24.5635H9.04094V10.948H4.89727V24.5622V24.5635ZM9.63381 6.50725C9.64162 6.86204 9.57849 7.21481 9.44812 7.54487C9.31775 7.87492 9.12276 8.17561 8.87461 8.42929C8.62645 8.68297 8.33013 8.88453 8.00302 9.02214C7.67592 9.15974 7.32462 9.23062 6.96975 9.23062C6.61488 9.23062 6.26358 9.15974 5.93647 9.02214C5.60937 8.88453 5.31304 8.68297 5.06489 8.42929C4.81673 8.17561 4.62175 7.87492 4.49138 7.54487C4.361 7.21481 4.29787 6.86204 4.30568 6.50725C4.32102 5.81085 4.60843 5.14815 5.10637 4.66105C5.60431 4.17396 6.27318 3.90121 6.96975 3.90121C7.66631 3.90121 8.33519 4.17396 8.83313 4.66105C9.33106 5.14815 9.61848 5.81085 9.63381 6.50725V6.50725Z" fill="#F8F8F8"/>
</svg>
