<svg id="Capa_1" data-name="Capa 1" xmlns="http://www.w3.org/2000/svg" viewBox="0 0 304.13 100"><defs><style>.cls-1{fill:#fff;}</style></defs><title>Mesa de trabajo 1</title><path class="cls-1" d="M68.71,0H13A13,13,0,0,0,0,13V68.71a13,13,0,0,0,13,13H68.71a13,13,0,0,0,13-13V13A13,13,0,0,0,68.71,0ZM41,75.78A6.78,6.78,0,1,1,47.74,69,6.79,6.79,0,0,1,41,75.78Zm4.89-24.49L35.8,55,30.08,6.21H51.82Z"/><path class="cls-1" d="M289,0H96.78A15.17,15.17,0,0,0,81.66,15.12V66.51A15.17,15.17,0,0,0,96.78,81.63H260.54l9.87-18.46L258.3,41.26h-5.6V70h-8.46V41.26h-9.51V70h-8.46V41.26h-3.6v-7.9h3.6V20h8.46V33.36h9.51V20h8.46V33.36h11.05l11.2,21,10.45-21H295L270,81.63h0l-.1.2-4.28,8.06L260.28,100h5a7.86,7.86,0,0,0,7-4.25l7.27-14.12H289a15.17,15.17,0,0,0,15.12-15.12V15.12A15.16,15.16,0,0,0,289,0ZM139.93,70h-8.76V42.87h-25V70H97.39v-58h8.75v22.7h25V11.94h8.76Zm14.59,0h-8.46V33.36h8.46Zm-.34-47.88a5.18,5.18,0,0,1-3.87,1.61,5.51,5.51,0,0,1-5.53-5.56,5.23,5.23,0,0,1,1.62-3.83,5.48,5.48,0,0,1,7.78,0,5.19,5.19,0,0,1,1.62,3.87A5.32,5.32,0,0,1,154.18,22.09Zm50.93,3.34q-7.59-6.34-15.71-6.35a20,20,0,0,0-15.07,6.43,21.66,21.66,0,0,0-6.16,15.63,21.13,21.13,0,0,0,6.16,15.41,20.33,20.33,0,0,0,15.11,6.28,18.38,18.38,0,0,0,7.85-1.51,22.08,22.08,0,0,0,3.74-2,42.86,42.86,0,0,0,4.08-3.08V66.77A31.54,31.54,0,0,1,189.32,71a29.1,29.1,0,0,1-21.23-8.68,28.78,28.78,0,0,1-8.76-21.12,29.84,29.84,0,0,1,7.33-19.77q9-10.63,23.34-10.64a29.65,29.65,0,0,1,15.11,4.25ZM218.38,70h-8.46V33.36h8.46ZM218,22.09a5.18,5.18,0,0,1-3.87,1.61,5.5,5.5,0,0,1-5.52-5.56,5.22,5.22,0,0,1,1.61-3.83,5.48,5.48,0,0,1,7.78,0,5.19,5.19,0,0,1,1.62,3.87A5.32,5.32,0,0,1,218,22.09Z"/></svg>