<svg width="25" height="27" viewBox="0 0 25 27" fill="none" xmlns="http://www.w3.org/2000/svg">
<path d="M23.4828 5.61014H21.3368C21.829 5.24962 22.2087 4.74824 22.4208 4.16159C22.7306 3.3051 22.6495 2.35998 22.1987 1.56858C21.6475 0.600989 20.6126 0 19.4975 0C18.6169 0 17.804 0.358753 17.2084 1.01008L14.5617 3.90487C14.1595 3.44476 13.57 3.15232 12.9123 3.15232H12.0875C11.4298 3.15232 10.8403 3.44476 10.4381 3.90501L7.79135 1.01022C7.19578 0.358753 6.383 0 5.50243 0C4.38733 0 3.35221 0.600989 2.80115 1.56858C2.35024 2.36011 2.26932 3.30524 2.57908 4.16173C2.79114 4.74837 3.17087 5.24962 3.66292 5.61014H1.51703C0.95637 5.61014 0.502075 6.06457 0.502075 6.62509V12.1331C0.502075 12.6707 0.920508 13.1096 1.44937 13.1446V25.985C1.44937 26.5456 1.90366 27 2.46432 27H9.29836H15.7015H22.5356C23.0962 27 23.5505 26.5456 23.5505 25.985V13.1446C24.0794 13.1097 24.4978 12.6708 24.4978 12.1331V6.62509C24.4978 6.06457 24.0435 5.61014 23.4828 5.61014ZM14.6866 7.64993V24.9701H10.3133V7.64993H10.9098H14.09H14.6866ZM4.48801 3.47142C4.37921 3.17032 4.40641 2.85135 4.56488 2.57325C4.7588 2.23304 5.1093 2.02991 5.50243 2.02991C5.8061 2.02991 6.08691 2.15414 6.29328 2.37987L9.2468 5.61014H9.11161L5.12148 4.11274C4.82186 4.00015 4.59681 3.77239 4.48801 3.47142ZM20.5119 3.47129C20.4029 3.77239 20.1779 4.00014 19.8781 4.1126L15.8883 5.61014H15.7531L18.7065 2.37987C18.9127 2.15414 19.1938 2.02991 19.4975 2.02991C19.8906 2.02991 20.2411 2.23304 20.435 2.57339C20.5932 2.85135 20.6207 3.17032 20.5119 3.47129Z" fill="white"/>
</svg>
