<svg width="138" height="54" viewBox="0 0 138 54" fill="none" xmlns="http://www.w3.org/2000/svg">
<path d="M129 -3.05176e-05H8.99992C4.02949 -3.05176e-05 0 4.02973 0 8.99989V44.9998C0 49.9703 4.02949 53.9997 8.99992 53.9997H129C133.97 53.9997 138 49.9703 138 44.9998V8.99989C138 4.02973 133.971 -3.05176e-05 129 -3.05176e-05ZM39.6993 41.9999L29.1188 36.4376L18.5386 41.9999L20.5593 30.219L11.9998 21.8754L23.8287 20.1566L29.1188 9.43761L34.4089 20.1566L46.2378 21.8754L37.6783 30.219L39.6993 41.9999ZM79.5805 41.9999L69 36.4376L58.4195 41.9999L60.4402 30.219L51.8807 21.8754L63.7096 20.1566L69 9.43761L74.2901 20.1566L86.119 21.8754L77.5595 30.219L79.5805 41.9999ZM119.461 41.9999L108.881 36.4376L98.3005 41.9999L100.321 30.219L91.7616 21.8754L103.591 20.1566L108.881 9.43761L114.171 20.1566L126 21.8754L117.44 30.219L119.461 41.9999Z" fill="#FF9C06"/>
</svg>
