<?xml version="1.0" encoding="iso-8859-1"?>
<!-- Generator: Adobe Illustrator 19.0.0, SVG Export Plug-In . SVG Version: 6.00 Build 0)  -->
<svg version="1.1" id="Layer_1" xmlns="http://www.w3.org/2000/svg" xmlns:xlink="http://www.w3.org/1999/xlink" x="0px" y="0px"
	 viewBox="0 0 512 512" style="enable-background:new 0 0 512 512;" xml:space="preserve">
<g>
	<g>
		<path d="M478.609,155.826H33.391C14.95,155.826,0,170.777,0,189.217v133.565c0,18.441,14.95,33.391,33.391,33.391h445.217
			c18.441,0,33.391-14.95,33.391-33.391V189.217C512,170.777,497.05,155.826,478.609,155.826z M147.29,311.652l-39.255-20.637
			l-39.254,20.637l7.497-43.709l-31.757-30.956l43.887-6.377l19.627-39.769l19.627,39.769l43.887,6.377l-31.757,30.956
			L147.29,311.652z M295.255,311.652L256,291.015l-39.255,20.637l7.497-43.709l-31.757-30.956l43.887-6.377L256,190.841
			l19.627,39.769l43.887,6.377l-31.757,30.956L295.255,311.652z M443.218,311.652l-39.255-20.637l-39.254,20.637l7.497-43.709
			l-31.757-30.956l43.887-6.377l19.627-39.769l19.627,39.769l43.887,6.377l-31.757,30.956L443.218,311.652z"/>
	</g>
</g>
<g>
</g>
<g>
</g>
<g>
</g>
<g>
</g>
<g>
</g>
<g>
</g>
<g>
</g>
<g>
</g>
<g>
</g>
<g>
</g>
<g>
</g>
<g>
</g>
<g>
</g>
<g>
</g>
<g>
</g>
</svg>
