<?xml version="1.0" encoding="iso-8859-1"?>
<!-- Generator: Adobe Illustrator 18.0.0, SVG Export Plug-In . SVG Version: 6.00 Build 0)  -->
<!DOCTYPE svg PUBLIC "-//W3C//DTD SVG 1.1//EN" "http://www.w3.org/Graphics/SVG/1.1/DTD/svg11.dtd">
<svg version="1.1" id="Capa_1" xmlns="http://www.w3.org/2000/svg" xmlns:xlink="http://www.w3.org/1999/xlink" x="0px" y="0px"
	 viewBox="0 0 459.985 459.985" style="enable-background:new 0 0 459.985 459.985;" xml:space="preserve">
<g>
	<circle cx="336.541" cy="45.405" r="36.373"/>
	<path d="M459.985,317.421c0-6.132-4.971-11.103-11.103-11.103h-14.292v-29.672c4.007-3.677,6.267-9.146,5.59-14.961
		l-14.925-128.097c-0.701-22.276-19.096-40.218-41.512-40.218h-47.184c-0.006,0-0.012,0.001-0.018,0.001s-0.012-0.001-0.018-0.001
		h-47.184c-9.192,0-17.705,3.021-24.601,8.116c6.312,9.516,10.028,20.892,10.089,33.111l0.34,67.638
		c8.248-70.788,7.733-65.95,7.74-67.366c0.01-1.921,1.571-3.47,3.491-3.465c1.92,0.005,3.473,1.563,3.473,3.482
		c0.002,28.031,0.008,138.427,0.008,140.685c12.57,4.03,21.697,15.824,21.697,29.715v113.529c0,10.239-4.958,19.343-12.599,25.035
		c-0.107,1.018-0.272,2.019-0.483,3.002c3.489,2.564,7.783,4.098,12.445,4.098c11.631,0,21.06-9.429,21.06-21.06V261.559v0h9.093v0
		v168.335c0,11.631,9.429,21.06,21.06,21.06s21.06-9.429,21.06-21.06l-0.371-292.639c-0.003-1.981,1.54-3.62,3.518-3.737
		s3.706,1.328,3.934,3.296c0,0,0,0,0,0l15.022,128.934c0.735,6.307,4.734,11.428,10.107,13.904v26.666H401.13
		c-6.132,0-11.103,4.971-11.103,11.103v106.211c0,6.132,4.971,11.103,11.103,11.103h47.752c6.132,0,11.103-4.971,11.103-11.103
		V317.421z"/>
	<path d="M45.411,91.156l3.323-31.902c0.21-2.02-1.256-3.827-3.276-4.038L9.561,51.477c-2.02-0.21-3.827,1.256-4.038,3.276
		L0.02,107.585c-0.21,2.02,1.256,3.827,3.276,4.038l3.658,0.381c2.355-5.078,5.897-9.694,10.593-13.382
		C25.078,92.706,35.004,89.693,45.411,91.156z"/>
	<path d="M166.925,81.778c20.043,0,36.373-16.272,36.373-36.373c0-20.088-16.285-36.373-36.373-36.373
		c-20.088,0-36.373,16.285-36.373,36.373C130.552,65.568,146.94,81.778,166.925,81.778z"/>
	<path d="M292.408,305.289c0-6.646-5.388-12.035-12.035-12.035h-13.226v-30.738c0-4.43-3.591-8.022-8.022-8.022h-2.864
		l-0.096-19.167h0l-0.506-100.633c-0.115-22.787-18.746-41.324-41.532-41.324c-1.933,0-50.95,0-94.404,0
		c-17.595,0-32.703,11.058-38.731,26.586c-3.318,8.548-2.799,14.328-2.854,25.371L51.913,113.21
		c-6.13-7.507-17.186-8.626-24.694-2.494c-7.319,5.976-8.544,16.625-2.921,24.113c0.145,0.193,0.273,0.392,0.427,0.58l57.124,69.96
		c4.714,5.772,12.51,7.9,19.445,5.446c6.981-2.468,11.662-9.053,11.699-16.458c0.03-5.956,0.269-53.543,0.299-59.486
		c0.01-1.921,1.572-3.47,3.491-3.465c1.92,0.005,3.472,1.563,3.472,3.483c0,26.173,0,120.333,0,126.669h0.008
		c0,3.035,0,163.439,0,168.335c0,11.631,9.429,21.06,21.06,21.06s21.06-9.429,21.06-21.06V261.559v0h9.093v0v26.01
		c4.559-6.583,11.581-11.338,19.724-12.914c0-13.601-0.01-12.097,0.024-13.097c0.446-12.794,9.769-23.365,21.99-25.73
		c0-9.711,0-78.111,0-101.203c0-2.029,1.645-3.674,3.674-3.674c2.029,0,3.674,1.644,3.675,3.673c0,0.081-0.001,0.164-0.003,0.247
		l0.004,0.78l0.501,99.677h0l0.096,19.167h-2.772c-4.43,0-8.022,3.591-8.022,8.022v30.738h-13.226
		c-6.646,0-12.035,5.388-12.035,12.035v113.529c0,6.646,5.388,12.035,12.035,12.035h0.408v9.986c0,5.293,4.291,9.583,9.583,9.583
		c5.293,0,9.583-4.291,9.583-9.583v-9.986h44.083v9.986c0,5.293,4.291,9.583,9.583,9.583c5.293,0,9.583-4.291,9.583-9.583v-9.986
		h0.408c6.647,0,12.035-5.388,12.035-12.035V305.289z M251.104,293.254H226.41v-17.068c3.172,3.141,7.534,5.08,12.345,5.08
		c0.03,0,0.061,0,0.09,0c4.785-0.024,9.108-1.966,12.258-5.087V293.254z"/>
</g>
<g>
</g>
<g>
</g>
<g>
</g>
<g>
</g>
<g>
</g>
<g>
</g>
<g>
</g>
<g>
</g>
<g>
</g>
<g>
</g>
<g>
</g>
<g>
</g>
<g>
</g>
<g>
</g>
<g>
</g>
</svg>
