<svg width="26" height="26" viewBox="0 0 26 26" fill="none" xmlns="http://www.w3.org/2000/svg">
<path d="M23.867 6.00749C20.0743 0.160451 12.331 -1.57786 6.3259 2.05679C0.478866 5.69143 -1.41747 13.5928 2.3752 19.4399L2.69126 19.914L1.42703 24.6548L6.16788 23.3906L6.64196 23.7066C8.69633 24.8128 10.9087 25.4449 13.1211 25.4449C15.4915 25.4449 17.862 24.8128 19.9163 23.5486C25.7634 19.7559 27.5017 12.0126 23.867 6.00749ZM20.5484 18.1756C19.9163 19.1238 19.1262 19.7559 18.02 19.914C17.3879 19.914 16.5977 20.23 13.4372 18.9658C10.7507 17.7016 8.5383 15.6472 6.95802 13.2768C6.00985 12.1706 5.53576 10.7483 5.37774 9.32608C5.37774 8.06185 5.85182 6.95566 6.64196 6.16552C6.95802 5.84946 7.27407 5.69143 7.59013 5.69143H8.38027C8.69633 5.69143 9.01238 5.69143 9.17041 6.32355C9.48647 7.11369 10.2766 9.01002 10.2766 9.16805C10.4346 9.32608 10.4346 9.64214 10.2766 9.80016C10.4346 10.1162 10.2766 10.4323 10.1186 10.5903C9.96055 10.7483 9.80252 11.0644 9.64449 11.2224C9.32844 11.3804 9.17041 11.6965 9.32844 12.0126C9.96055 12.9607 10.7507 13.9089 11.5408 14.699C12.489 15.4892 13.4372 16.1213 14.5434 16.5954C14.8594 16.7534 15.1755 16.7534 15.3335 16.4373C15.4915 16.1213 16.2817 15.3311 16.5977 15.0151C16.9138 14.699 17.0718 14.699 17.3879 14.8571L19.9163 16.1213C20.2324 16.2793 20.5484 16.4373 20.7065 16.5954C20.8645 17.0695 20.8645 17.7016 20.5484 18.1756Z" fill="white"/>
</svg>
