<svg width="200" height="260" viewBox="0 0 200 260" fill="none" xmlns="http://www.w3.org/2000/svg">
<path d="M136.842 184.456C142.737 184.456 147.368 189.474 147.368 195.86C147.368 202.246 142.737 207.263 136.842 207.263C130.947 207.263 126.316 202.246 126.316 195.86C126.316 189.474 130.947 184.456 136.842 184.456ZM136.842 150.246C108.105 150.246 83.579 169.175 73.6842 195.86C83.579 222.544 108.105 241.474 136.842 241.474C165.579 241.474 190.105 222.544 200 195.86C190.105 169.175 165.579 150.246 136.842 150.246ZM136.842 224.368C129.863 224.368 123.169 221.365 118.234 216.018C113.299 210.672 110.526 203.421 110.526 195.86C110.526 188.299 113.299 181.047 118.234 175.701C123.169 170.354 129.863 167.351 136.842 167.351C143.821 167.351 150.515 170.354 155.45 175.701C160.385 181.047 163.158 188.299 163.158 195.86C163.158 203.421 160.385 210.672 155.45 216.018C150.515 221.365 143.821 224.368 136.842 224.368ZM54.1053 204.412L51.0526 195.86L54.1053 187.421C67.6842 150.93 100 127.439 136.842 127.439C147.895 127.439 158.526 129.833 168.421 133.825V70.421L105.263 2H21.0526C9.36842 2 0 12.1491 0 24.807V207.263C0 213.312 2.21804 219.113 6.16617 223.39C10.1143 227.667 15.4691 230.07 21.0526 230.07H68.4211C62.6316 222.544 57.8947 213.877 54.1053 204.412ZM94.7368 19.1053L152.632 81.8246H94.7368V19.1053Z" fill="black"/>
</svg>
