<svg width="200" height="200" viewBox="0 0 200 200" fill="none" xmlns="http://www.w3.org/2000/svg">
<path d="M45.4545 175C37.8788 175 31.4394 172.266 26.1364 166.797C20.8333 161.328 18.1818 154.688 18.1818 146.875H0V43.75C0 38.5937 1.78182 34.1812 5.34546 30.5125C8.90303 26.8375 13.1818 25 18.1818 25H145.455V62.5H172.727L200 100V146.875H181.818C181.818 154.688 179.167 161.328 173.864 166.797C168.561 172.266 162.121 175 154.545 175C146.97 175 140.53 172.266 135.227 166.797C129.924 161.328 127.273 154.688 127.273 146.875H72.7273C72.7273 154.688 70.0758 161.328 64.7727 166.797C59.4697 172.266 53.0303 175 45.4545 175ZM45.4545 156.25C48.0303 156.25 50.1909 155.35 51.9364 153.55C53.6758 151.756 54.5455 149.531 54.5455 146.875C54.5455 144.219 53.6758 141.994 51.9364 140.2C50.1909 138.4 48.0303 137.5 45.4545 137.5C42.8788 137.5 40.7182 138.4 38.9727 140.2C37.2333 141.994 36.3636 144.219 36.3636 146.875C36.3636 149.531 37.2333 151.756 38.9727 153.55C40.7182 155.35 42.8788 156.25 45.4545 156.25ZM154.545 156.25C157.121 156.25 159.279 155.35 161.018 153.55C162.764 151.756 163.636 149.531 163.636 146.875C163.636 144.219 162.764 141.994 161.018 140.2C159.279 138.4 157.121 137.5 154.545 137.5C151.97 137.5 149.812 138.4 148.073 140.2C146.327 141.994 145.455 144.219 145.455 146.875C145.455 149.531 146.327 151.756 148.073 153.55C149.812 155.35 151.97 156.25 154.545 156.25ZM145.455 109.375H184.091L163.636 81.25H145.455V109.375Z" fill="black"/>
</svg>
