<?xml version="1.0" encoding="utf-8"?>
<!-- Generator: Adobe Illustrator 19.0.0, SVG Export Plug-In . SVG Version: 6.00 Build 0)  -->
<svg version="1.1" id="Capa_1" xmlns="http://www.w3.org/2000/svg" xmlns:xlink="http://www.w3.org/1999/xlink" x="0px" y="0px"
	 viewBox="-197 331.9 200 178" style="enable-background:new -197 331.9 200 178;" xml:space="preserve">
<style type="text/css">
	.st0{fill:#FFFFFF;}
</style>
<path class="st0" d="M-178.9,509.7v-15h9.3c4,0,8.1-0.8,12.2-2.3c4.1-1.5,8.1-4.2,12-8c3.9,3.8,7.9,6.5,12,8
	c4.1,1.5,8.2,2.3,12.2,2.3c3.9,0,8-0.8,12.2-2.4c4.2-1.6,8.2-4.3,12-8.1c4,4,8.1,6.7,12.1,8.1s8.1,2.2,12.1,2.2
	c3.9,0,8-0.8,12.2-2.3c4.2-1.5,8.2-4.2,12-8c3.8,3.8,7.8,6.5,12,8.1c4.2,1.6,8.3,2.4,12.2,2.4h9.3v15h-9.3c-3.9,0-7.9-0.6-12-1.7
	c-4.1-1.2-8.2-3.2-12.2-6.3c-4,3-8.1,5.1-12.2,6.3c-4.1,1.2-8.1,1.7-12,1.7c-3.9,0-7.9-0.6-12-1.7c-4.1-1.2-8.2-3.2-12.2-6.3
	c-4,3-8.1,5.1-12.2,6.3c-4.1,1.2-8.1,1.7-12,1.7c-3.9,0-7.9-0.6-12-1.7c-4.1-1.2-8.2-3.2-12.2-6.3c-4,3-8.1,5.1-12.2,6.3
	c-4.1,1.2-8.1,1.7-12,1.7H-178.9z M-97,390.7c-4.4,0-8.2-1.6-11.3-4.8s-4.6-7.1-4.6-11.6c0-4.4,1.5-8.2,4.6-11.4
	c3.1-3.2,6.9-4.8,11.3-4.8c4.4,0,8.2,1.6,11.3,4.8c3.1,3.2,4.6,7,4.6,11.4c0,4.5-1.5,8.4-4.6,11.6C-88.8,389.1-92.6,390.7-97,390.7z
	 M-121.2,474.8c-4.4,0-8.8-1.1-13-3.4c-4.2-2.3-8-5.3-11.2-9.1c-1.7,1.8-3.8,3.6-6,5.3c-2.3,1.8-4.5,3.4-6.7,4.9
	c-5.4-1.2-11.6-2.9-18.5-5c-7-2.1-13.8-4.4-20.4-6.9c7.8-3.1,17.6-6.3,29.3-9.4c11.8-3.1,22.4-5.5,32-7.2l11.1-35.9
	c1.1-4.2,3.5-7.2,7.4-8.9c3.8-1.7,7.7-1.5,11.6,0.5l20.8,11.1l23.4-12.5l13.7-32.4l-4-10.9l10.5-23.2l24.2,11.1l-10.1,23.4
	l-10.7,4.1l-30.4,72.2c12.1,1.6,25,4.2,38.6,7.7c13.6,3.5,24.6,6.9,32.8,10.4c-6.7,2.5-13.5,4.8-20.5,7c-6.9,2.2-13.1,3.8-18.4,4.9
	c-2.2-1.6-4.4-3.3-6.7-5c-2.3-1.7-4.3-3.5-6-5.2c-3.2,3.8-7,6.9-11.2,9.1c-4.2,2.3-8.6,3.4-13,3.4c-4.4,0-8.8-1.1-13-3.4
	c-4.2-2.3-8-5.3-11.2-9.1c-3.2,3.8-7,6.9-11.2,9.1C-112.4,473.7-116.8,474.8-121.2,474.8z M-79.9,441.4l8.9-21.5l-13.9,7.2l-14.5-7
	l-6.3,20.7c1.9,0,3.5,0,4.8,0c1.3,0,3,0,4.8,0c2.6,0,5.1,0,7.7,0.1C-85.8,440.9-83,441.1-79.9,441.4z"/>
</svg>
