<?xml version="1.0" encoding="utf-8"?>
<!-- Generator: Adobe Illustrator 19.0.0, SVG Export Plug-In . SVG Version: 6.00 Build 0)  -->
<svg version="1.1" id="Capa_1" xmlns="http://www.w3.org/2000/svg" xmlns:xlink="http://www.w3.org/1999/xlink" x="0px" y="0px"
	 viewBox="-197 320.9 200 200" style="enable-background:new -197 320.9 200 200;" xml:space="preserve">
<style type="text/css">
	.st0{fill:#FFFFFF;}
</style>
<path class="st0" d="M-189.1,487.6V468c0-4.9,1.3-9.3,3.7-13.2c2.5-4,6-6.9,10.4-8.9c10.1-4.4,19.3-7.6,27.4-9.6
	c8.1-1.9,16.5-2.9,25.1-2.9s16.9,1,25,2.9c8.1,1.9,17.2,5.1,27.3,9.6c4.4,1.9,8,4.9,10.5,8.9c2.6,4,3.9,8.4,3.9,13.2v19.6H-189.1z
	 M-43.3,487.6V468c0-8.8-2.2-15.9-6.7-21.6c-4.4-5.6-10.3-10.2-17.5-13.6c9.6,1.1,18.6,2.7,27.1,4.9c8.5,2.2,15.3,4.6,20.6,7.4
	c4.6,2.6,8.2,5.9,10.8,9.8c2.6,3.9,4,8.3,4,13.1v19.6H-43.3z M-122.4,420.7c-9.2,0-16.7-2.9-22.5-8.8c-5.8-5.8-8.8-13.3-8.8-22.5
	c0-9.2,2.9-16.7,8.8-22.5c5.8-5.8,13.3-8.8,22.5-8.8s16.7,2.9,22.5,8.8c5.8,5.8,8.7,13.3,8.7,22.5c0,9.2-2.9,16.7-8.7,22.5
	C-105.8,417.8-113.3,420.7-122.4,420.7L-122.4,420.7z M-78.7,420.7c-1.5,0-3.2-0.1-5.1-0.3c-1.9-0.2-3.6-0.6-5.1-1.1
	c3.3-3.5,5.9-7.7,7.6-12.8c1.7-5.1,2.6-10.7,2.6-17s-0.9-11.8-2.6-16.6c-1.7-4.8-4.3-9.2-7.6-13.2c1.5-0.4,3.2-0.8,5.1-1
	s3.6-0.4,5.1-0.4c9.2,0,16.7,2.9,22.5,8.8c5.8,5.8,8.8,13.3,8.8,22.5c0,9.2-2.9,16.7-8.8,22.5C-62,417.8-69.5,420.7-78.7,420.7
	L-78.7,420.7z"/>
</svg>
