<?xml version="1.0" encoding="utf-8"?>
<!-- Generator: Adobe Illustrator 19.0.0, SVG Export Plug-In . SVG Version: 6.00 Build 0)  -->
<svg version="1.1" id="Capa_1" xmlns="http://www.w3.org/2000/svg" xmlns:xlink="http://www.w3.org/1999/xlink" x="0px" y="0px"
	 viewBox="-197 320.9 200 200" style="enable-background:new -197 320.9 200 200;" xml:space="preserve">
<style type="text/css">
	.st0{fill:#FFFFFF;}
</style>
<path class="st0" d="M-15.6,362.4h-15.9c3.6-2.7,6.5-6.4,8-10.7c2.3-6.3,1.7-13.3-1.6-19.2c-4.1-7.2-11.8-11.6-20-11.6
	c-6.5,0-12.5,2.7-17,7.5l-19.6,21.4c-3-3.4-7.3-5.6-12.2-5.6h-6.1c-4.9,0-9.2,2.2-12.2,5.6l-19.6-21.4c-4.4-4.8-10.4-7.5-17-7.5
	c-8.3,0-15.9,4.5-20,11.6c-3.3,5.9-3.9,12.9-1.6,19.2c1.6,4.3,4.4,8.1,8,10.7h-15.9c-4.2,0-7.5,3.4-7.5,7.5v40.8c0,4,3.1,7.2,7,7.5
	v95.1c0,4.2,3.4,7.5,7.5,7.5h50.6h47.4h50.6c4.2,0,7.5-3.4,7.5-7.5v-95.1c3.9-0.3,7-3.5,7-7.5V370C-8.1,365.8-11.5,362.4-15.6,362.4
	z M-80.8,377.6v128.3h-32.4V377.6h4.4h23.6H-80.8z M-156.3,346.6c-0.8-2.2-0.6-4.6,0.6-6.7c1.4-2.5,4-4,6.9-4c2.2,0,4.3,0.9,5.9,2.6
	l21.9,23.9h-1l-29.6-11.1C-153.9,350.5-155.5,348.8-156.3,346.6z M-37.7,346.6c-0.8,2.2-2.5,3.9-4.7,4.8l-29.6,11.1h-1l21.9-23.9
	c1.5-1.7,3.6-2.6,5.9-2.6c2.9,0,5.5,1.5,6.9,4C-37.1,342-36.8,344.4-37.7,346.6z"/>
</svg>
