<svg width="200" height="200" viewBox="0 0 200 200" fill="none" xmlns="http://www.w3.org/2000/svg">
<path d="M158.257 16.667H75.0815C65.8232 16.667 58.3315 24.1587 58.3315 33.417V80.392L19.1482 119.075C17.9742 120.236 17.1716 121.72 16.8422 123.338C16.5129 124.956 16.6717 126.636 17.2985 128.163C17.9253 129.691 18.9918 130.998 20.3626 131.919C21.7335 132.839 23.347 133.332 24.9982 133.334V175C24.9982 177.21 25.8762 179.33 27.439 180.893C29.0018 182.456 31.1214 183.334 33.3315 183.334H166.665C168.875 183.334 170.995 182.456 172.557 180.893C174.12 179.33 174.998 177.21 174.998 175V33.4087C174.998 24.1587 167.515 16.667 158.257 16.667ZM91.0149 125.925V166.667H41.6649V120.267L66.5565 95.692L91.0149 120.717V125.925V125.925ZM108.332 75.0003H91.6649V58.3337H108.332V75.0003ZM141.665 141.667H124.998V125H141.665V141.667ZM141.665 108.334H124.998V91.667H141.665V108.334ZM141.665 75.0003H124.998V58.3337H141.665V75.0003Z" fill="#86BCD9"/>
<path d="M58.334 125H75.0007V141.667H58.334V125Z" fill="#86BCD9"/>
</svg>
