<svg width="200" height="200" viewBox="0 0 200 200" fill="none" xmlns="http://www.w3.org/2000/svg">
<path d="M172.223 44.4443H122.223V183.333H183.334V55.5554C183.334 52.6086 182.163 49.7824 180.079 47.6987C177.996 45.615 175.17 44.4443 172.223 44.4443V44.4443ZM144.445 138.889H133.334V127.778H144.445V138.889ZM144.445 111.111H133.334V99.9999H144.445V111.111ZM144.445 83.3332H133.334V72.2221H144.445V83.3332ZM166.667 138.889H155.556V127.778H166.667V138.889ZM166.667 111.111H155.556V99.9999H166.667V111.111ZM166.667 83.3332H155.556V72.2221H166.667V83.3332Z" fill="white"/>
<path d="M99.3338 16.667H34.0004C30.8768 16.667 27.881 17.9079 25.6723 20.1166C23.4635 22.3254 22.2227 25.3211 22.2227 28.4448V183.334H50.0004V166.667H83.3338V183.334H111.112V28.4448C111.112 25.3211 109.871 22.3254 107.662 20.1166C105.453 17.9079 102.457 16.667 99.3338 16.667V16.667ZM50.0004 138.889H38.8893V127.778H50.0004V138.889ZM50.0004 111.111H38.8893V100H50.0004V111.111ZM50.0004 83.3337H38.8893V72.2225H50.0004V83.3337ZM50.0004 55.5559H38.8893V44.4448H50.0004V55.5559ZM72.2227 138.889H61.1115V127.778H72.2227V138.889ZM72.2227 111.111H61.1115V100H72.2227V111.111ZM72.2227 83.3337H61.1115V72.2225H72.2227V83.3337ZM72.2227 55.5559H61.1115V44.4448H72.2227V55.5559ZM94.4449 138.889H83.3338V127.778H94.4449V138.889ZM94.4449 111.111H83.3338V100H94.4449V111.111ZM94.4449 83.3337H83.3338V72.2225H94.4449V83.3337ZM94.4449 55.5559H83.3338V44.4448H94.4449V55.5559Z" fill="white"/>
</svg>
