<svg width="200" height="178" viewBox="0 0 200 178" fill="none" xmlns="http://www.w3.org/2000/svg">
<g clip-path="url(#clip0_482_2945)">
<path d="M194.444 22.3335C197.514 22.3335 200 19.8474 200 16.778V5.66688C200 2.59744 197.514 0.111328 194.444 0.111328H5.55556C2.48611 0.111328 0 2.59744 0 5.66688V16.778C0 19.8474 2.48611 22.3335 5.55556 22.3335H11.1042V155.667H5.55556C2.48611 155.667 0 158.153 0 161.222V172.334C0 175.403 2.48611 177.889 5.55556 177.889H88.8889V150.111C88.8889 147.056 91.3889 144.556 94.4444 144.556H105.556C108.611 144.556 111.111 147.056 111.111 150.111V177.889H194.444C197.514 177.889 200 175.403 200 172.334V161.222C200 158.153 197.514 155.667 194.444 155.667H188.889V22.3335H194.444ZM88.8889 37.8891C88.8889 35.6669 91.1111 33.4447 93.3333 33.4447H106.667C108.889 33.4447 111.111 35.6669 111.111 37.8891V51.2224C111.111 53.4447 108.889 55.6669 106.667 55.6669H93.3333C91.1111 55.6669 88.8889 53.4447 88.8889 51.2224V37.8891V37.8891ZM88.8889 71.2224C88.8889 69.0002 91.1111 66.778 93.3333 66.778H106.667C108.889 66.778 111.111 69.0002 111.111 71.2224V84.5558C111.111 86.778 108.889 89.0002 106.667 89.0002H93.3333C91.1111 89.0002 88.8889 86.778 88.8889 84.5558V71.2224V71.2224ZM44.4444 37.8891C44.4444 35.6669 46.6667 33.4447 48.8889 33.4447H62.2222C64.4444 33.4447 66.6667 35.6669 66.6667 37.8891V51.2224C66.6667 53.4447 64.4444 55.6669 62.2222 55.6669H48.8889C46.6667 55.6669 44.4444 53.4447 44.4444 51.2224V37.8891ZM62.2222 89.0002H48.8889C46.6667 89.0002 44.4444 86.778 44.4444 84.5558V71.2224C44.4444 69.0002 46.6667 66.778 48.8889 66.778H62.2222C64.4444 66.778 66.6667 69.0002 66.6667 71.2224V84.5558C66.6667 86.778 64.4444 89.0002 62.2222 89.0002ZM66.6667 133.445C66.6667 115.035 81.5903 100.111 100 100.111C118.41 100.111 133.333 115.035 133.333 133.445H66.6667ZM155.556 84.5558C155.556 86.778 153.333 89.0002 151.111 89.0002H137.778C135.556 89.0002 133.333 86.778 133.333 84.5558V71.2224C133.333 69.0002 135.556 66.778 137.778 66.778H151.111C153.333 66.778 155.556 69.0002 155.556 71.2224V84.5558ZM155.556 51.2224C155.556 53.4447 153.333 55.6669 151.111 55.6669H137.778C135.556 55.6669 133.333 53.4447 133.333 51.2224V37.8891C133.333 35.6669 135.556 33.4447 137.778 33.4447H151.111C153.333 33.4447 155.556 35.6669 155.556 37.8891V51.2224Z" fill="#86BCD9"/>
</g>
<defs>
<clipPath id="clip0_482_2945">
<rect width="200" height="177.778" fill="white" transform="translate(0 0.111328)"/>
</clipPath>
</defs>
</svg>
