<svg width="200" height="200" viewBox="0 0 200 200" fill="none" xmlns="http://www.w3.org/2000/svg">
<path d="M183.333 83.3333V166.667C183.333 168.877 182.455 170.996 180.892 172.559C179.33 174.122 177.21 175 175 175H24.9998C22.7897 175 20.6701 174.122 19.1073 172.559C17.5445 170.996 16.6665 168.877 16.6665 166.667V83.3333H183.333ZM183.333 66.6667H16.6665V33.3333C16.6665 31.1232 17.5445 29.0036 19.1073 27.4408C20.6701 25.878 22.7897 25 24.9998 25H175C177.21 25 179.33 25.878 180.892 27.4408C182.455 29.0036 183.333 31.1232 183.333 33.3333V66.6667ZM125 133.333V150H158.333V133.333H125Z" fill="white"/>
</svg>
