<svg width="200" height="200" viewBox="0 0 200 200" fill="none" xmlns="http://www.w3.org/2000/svg">
<g clip-path="url(#clip0_482_2927)">
<path d="M100 0C95.9199 0 92.0068 1.62087 89.1216 4.50605C86.2365 7.39123 84.6156 11.3044 84.6156 15.3846V92.3077C84.6156 96.388 86.2365 100.301 89.1216 103.186C92.0068 106.071 95.9199 107.692 100 107.692C104.08 107.692 107.994 106.071 110.879 103.186C113.764 100.301 115.385 96.388 115.385 92.3077V15.3846C115.385 11.3044 113.764 7.39123 110.879 4.50605C107.994 1.62087 104.08 0 100 0V0ZM44.954 19.9538C42.7348 20.2342 40.6449 21.1535 38.9386 22.6C27.2395 31.823 17.7864 43.5813 11.292 56.9886C4.79749 70.3959 1.43105 85.1025 1.44634 100C1.44634 154.292 45.6925 198.562 100 198.562C154.308 198.562 198.562 154.292 198.562 100C198.562 68.6692 183.931 40.6385 161.062 22.5923C159.878 21.6453 158.519 20.9407 157.063 20.5188C155.607 20.097 154.081 19.966 152.575 20.1335C151.068 20.301 149.609 20.7637 148.281 21.4951C146.953 22.2264 145.782 23.2122 144.835 24.3962C143.888 25.5801 143.183 26.9389 142.761 28.3951C142.339 29.8514 142.209 31.3764 142.376 32.8832C142.544 34.39 143.006 35.8491 143.738 37.1771C144.469 38.5051 145.455 39.676 146.639 40.6231C155.634 47.6852 162.906 56.7008 167.904 66.9877C172.901 77.2746 175.494 88.5634 175.485 100C175.509 109.92 173.573 119.746 169.788 128.916C166.004 138.085 160.444 146.416 153.43 153.43C146.416 160.444 138.085 166.003 128.916 169.788C119.746 173.573 109.92 175.509 100 175.485C90.0806 175.509 80.2539 173.573 71.0847 169.788C61.9155 166.003 53.5845 160.444 46.5702 153.43C39.556 146.416 33.9967 138.085 30.2119 128.916C26.4271 119.746 24.4912 109.92 24.5156 100C24.5091 88.5638 27.1026 77.2758 32.0999 66.9892C37.0973 56.7026 44.3678 47.6868 53.3617 40.6231C55.3988 39.093 56.8722 36.9317 57.5521 34.4763C58.232 32.021 58.0801 29.4096 57.1201 27.0496C56.1601 24.6897 54.4461 22.7138 52.2453 21.4302C50.0445 20.1466 47.4808 19.6275 44.954 19.9538V19.9538Z" fill="white"/>
</g>
<defs>
<clipPath id="clip0_482_2927">
<rect width="200" height="200" fill="white"/>
</clipPath>
</defs>
</svg>
