<svg width="200" height="232" viewBox="0 0 200 232" fill="none" xmlns="http://www.w3.org/2000/svg">
<g clip-path="url(#clip0_482_3025)">
<path d="M142.857 202.632V220.724C142.857 226.719 138.06 231.579 132.143 231.579H10.7143C4.79687 231.579 0 226.719 0 220.724V54.2763C0 48.281 4.79687 43.4211 10.7143 43.4211H42.8571V177.303C42.8571 191.269 54.0719 202.632 67.8571 202.632H142.857ZM142.857 47.0395V0H67.8571C61.9397 0 57.1429 4.85999 57.1429 10.8553V177.303C57.1429 183.298 61.9397 188.158 67.8571 188.158H189.286C195.203 188.158 200 183.298 200 177.303V57.8947H153.571C147.679 57.8947 142.857 53.0099 142.857 47.0395ZM196.862 33.005L167.424 3.17924C165.414 1.14361 162.689 1.50525e-05 159.848 0L157.143 0V43.4211H200V40.6806C200 37.8017 198.871 35.0407 196.862 33.005V33.005Z" fill="#FF9C06"/>
</g>
<defs>
<clipPath id="clip0_482_3025">
<rect width="200" height="231.579" fill="white"/>
</clipPath>
</defs>
</svg>
