<svg width="243" height="187" viewBox="0 0 243 187" fill="none" xmlns="http://www.w3.org/2000/svg">
<path d="M151.962 51.1451C135.166 41.7341 108.034 41.7341 91.3368 51.1451C74.64 60.5561 74.7394 75.855 91.5356 85.2659C108.332 94.6769 135.464 94.6769 152.161 85.2659C168.858 75.8067 168.758 60.5561 151.962 51.1451ZM144.26 65.9614C142.819 66.3957 141.378 66.8783 139.937 67.3127C139.042 67.554 138.495 67.6022 138.098 67.4092C137.899 67.2644 137.7 67.0714 137.502 66.7818C136.557 65.2857 135.116 63.9826 133.178 62.9209C132.93 62.7761 132.632 62.6313 132.334 62.4865C131.688 62.1487 131.091 61.9074 130.296 61.7144C127.513 61.087 125.029 62.1004 125.377 63.7896C125.526 64.6583 126.023 65.4305 126.619 66.2509C127.613 67.6022 128.706 68.9536 129.402 70.4014C131.737 74.938 126.669 79.4263 118.519 79.8606C115.587 80.0054 112.804 79.6676 110.22 78.8472C109.077 78.5093 108.232 78.5093 107.388 79.0885C106.543 79.6193 105.599 80.102 104.704 80.5846C103.909 81.0189 103.064 81.0672 102.269 80.6328C101.673 80.3433 101.126 80.0054 100.53 79.7159C100.132 79.4746 99.7349 79.2815 99.3374 79.0402C98.4926 78.5576 98.592 78.075 99.3871 77.5924C100.033 77.2063 100.679 76.8684 101.275 76.4824C102.717 75.6619 102.717 75.6136 101.524 74.6967C100.033 73.5384 98.6914 72.3319 97.8466 70.9805C97.2006 69.9188 97.3497 69.6775 99.0889 69.0984C100.381 68.7123 101.623 68.2779 102.915 67.8918C103.859 67.6022 104.406 67.554 104.804 67.747C105.052 67.8918 105.201 68.0849 105.4 68.4227C106.245 69.9671 107.686 71.3184 109.425 72.6214C109.723 72.8627 110.071 73.0558 110.369 73.2488C111.313 73.7797 112.407 74.1658 113.649 74.4554C116.879 75.1793 119.761 73.9245 119.463 71.9458C119.364 71.2701 119.016 70.691 118.569 70.0636C117.475 68.471 116.034 66.9748 115.289 65.2857C114.096 62.583 114.643 60.1217 118.469 58.1913C122.842 56.0195 127.712 55.8747 132.88 57.226C135.017 57.8052 134.967 57.8052 136.607 56.8882C137.154 56.5504 137.7 56.2608 138.247 55.9712C139.489 55.2956 139.937 55.2956 141.179 55.9712C141.576 56.1643 141.924 56.4056 142.322 56.5986C144.956 58.0465 144.956 58.0465 142.372 59.5426C140.533 60.5561 140.533 60.5561 142.073 61.7626C143.266 62.6796 144.21 63.6448 144.906 64.7066C145.452 65.2374 145.254 65.6718 144.26 65.9614ZM174.374 97.7174C169.752 100.324 162.249 100.324 157.578 97.7174C152.956 95.1113 152.906 90.8643 157.528 88.2581C162.149 85.652 169.653 85.652 174.324 88.2581C178.995 90.8643 179.045 95.1113 174.374 97.7174ZM85.9203 48.1046C81.2989 50.7107 73.7952 50.7107 69.1241 48.1046C64.453 45.4985 64.453 41.2515 69.0744 38.6454C73.6958 36.0393 81.1995 36.0393 85.8706 38.6454C90.4921 41.2515 90.5417 45.4985 85.9203 48.1046ZM237.235 77.4958L104.804 3.22145C97.1509 -1.07382 84.7277 -1.07382 77.1247 3.22145L6.11343 43.2785C-1.48959 47.5737 -1.4399 54.5717 6.21282 58.8669L138.645 133.141C146.297 137.437 158.72 137.437 166.323 133.141L237.285 93.0843C244.938 88.789 244.888 81.7911 237.235 77.4958ZM167.765 119.001C166.92 118.229 165.926 117.505 164.733 116.829C156.981 112.485 144.409 112.485 136.706 116.829C136.11 117.167 135.613 117.505 135.067 117.891L32.2519 60.2182C33.2458 59.8322 34.1899 59.3978 35.0844 58.9152C42.7868 54.5717 42.7371 47.5255 34.985 43.1819C34.1403 42.6993 33.2458 42.265 32.3016 41.9272L74.6897 17.9895C75.3357 18.5203 76.0811 19.0029 76.9259 19.4856C84.678 23.8291 97.2503 23.8291 104.953 19.4856C105.847 19.0029 106.593 18.4721 107.288 17.8929L210.451 75.7102C209.059 76.1928 207.817 76.7237 206.624 77.3993C198.922 81.7429 198.922 88.8373 206.724 93.1808C207.916 93.8565 209.258 94.3874 210.65 94.87L167.765 119.001ZM2.73431 73.7314C6.11343 72.0423 11.3312 72.2836 14.5612 74.1175L153.006 151.722L227.843 109.445C231.073 107.611 236.391 107.611 239.67 109.445C242.95 111.279 242.95 114.271 239.72 116.105L160.162 160.988C156.286 163.208 149.925 163.208 145.999 160.988L143.216 159.444L141.278 158.334L2.48585 80.5363C-0.893275 78.6541 -0.843582 75.5171 2.73431 73.7314ZM239.819 140.381L160.261 185.264C156.385 187.484 150.024 187.484 146.098 185.264L143.365 183.719L141.378 182.609L2.58523 104.812C-0.793889 102.93 -0.694503 99.7926 2.88339 98.007C6.21282 96.3178 11.4803 96.5591 14.7103 98.3931L153.105 175.997L227.943 133.769C231.222 131.935 236.49 131.935 239.77 133.769C243.049 135.554 243.099 138.547 239.819 140.381Z" fill="white" fill-opacity="0.2"/>
</svg>
