<svg width="200" height="200" viewBox="0 0 200 200" fill="none" xmlns="http://www.w3.org/2000/svg">
<path d="M25 50.0009H175M50 25.0009V175.001V25.0009ZM150 25.0009V175.001V25.0009Z" stroke="black" stroke-width="2.01935" stroke-linecap="round" stroke-linejoin="round"/>
<path fill-rule="evenodd" clip-rule="evenodd" d="M79.9998 75.0004H120C121.326 75.0004 122.598 75.5271 123.535 76.4648C124.473 77.4025 125 78.6743 125 80.0004V120C125 121.326 124.473 122.598 123.535 123.536C122.598 124.474 121.326 125 120 125H79.9998C78.6737 125 77.4019 124.474 76.4642 123.536C75.5265 122.598 74.9998 121.326 74.9998 120V80.0004C74.9998 78.6743 75.5265 77.4025 76.4642 76.4648C77.4019 75.5271 78.6737 75.0004 79.9998 75.0004V75.0004Z" fill="black"/>
<path d="M24.9998 150H175" stroke="black" stroke-width="2.01935" stroke-linecap="round" stroke-linejoin="round"/>
</svg>
