<svg width="200" height="200" viewBox="0 0 200 200" fill="none" xmlns="http://www.w3.org/2000/svg">
<path d="M87.5055 62.1354V12.5H49.2218C44.8703 12.5 40.6971 14.2431 37.6201 17.346C34.5432 20.4488 32.8146 24.6571 32.8146 29.0451V91.5857C39.0047 93.795 44.3958 97.8252 48.2916 103.156C52.1874 108.486 54.4088 114.872 54.669 121.488L70.431 105.583C73.5089 102.479 77.6835 100.735 82.0364 100.735C86.3892 100.735 90.5638 102.479 93.6418 105.583C96.7197 108.687 98.4489 112.896 98.4489 117.286C98.4489 121.675 96.7197 125.885 93.6418 128.989L77.8689 144.883C84.4284 145.148 90.7586 147.389 96.0424 151.317C101.326 155.245 105.321 160.681 107.511 166.921H136.727C141.079 166.921 145.252 165.178 148.329 162.075C151.406 158.972 153.135 154.764 153.135 150.376V78.6805H103.913C99.5613 78.6805 95.388 76.9373 92.311 73.8345C89.2341 70.7317 87.5055 66.5234 87.5055 62.1354ZM43.7527 122.801C43.7527 128.652 41.4479 134.263 37.3453 138.4C33.2427 142.537 27.6783 144.861 21.8764 144.861C16.0744 144.861 10.5101 142.537 6.40744 138.4C2.30483 134.263 0 128.652 0 122.801C0 116.95 2.30483 111.339 6.40744 107.202C10.5101 103.065 16.0744 100.741 21.8764 100.741C27.6783 100.741 33.2427 103.065 37.3453 107.202C41.4479 111.339 43.7527 116.95 43.7527 122.801ZM32.8146 122.801C32.8146 119.875 31.6621 117.07 29.6108 115.001C27.5595 112.933 24.7774 111.771 21.8764 111.771C18.9754 111.771 16.1932 112.933 14.1419 115.001C12.0906 117.07 10.9382 119.875 10.9382 122.801C10.9382 125.726 12.0906 128.532 14.1419 130.6C16.1932 132.669 18.9754 133.831 21.8764 133.831C24.7774 133.831 27.5595 132.669 29.6108 130.6C31.6621 128.532 32.8146 125.726 32.8146 122.801ZM20.2794 187.371C19.2524 188.406 17.8596 188.988 16.4073 188.988C14.9549 188.988 13.5621 188.406 12.5352 187.371C11.5082 186.335 10.9313 184.931 10.9313 183.466C10.9313 182.002 11.5082 180.597 12.5352 179.562L78.1643 113.381C79.1912 112.346 80.5841 111.764 82.0364 111.764C83.4887 111.764 84.8815 112.346 85.9085 113.381C86.9354 114.417 87.5124 115.821 87.5124 117.286C87.5124 118.75 86.9354 120.155 85.9085 121.19L20.2794 187.371ZM131.914 188.981H107.5C108.704 185.529 109.371 181.812 109.371 177.951H131.247C139.95 177.951 148.297 174.465 154.451 168.259C160.605 162.054 164.062 153.637 164.062 144.861V78.6805C166.963 78.6805 169.745 79.8426 171.796 81.9111C173.848 83.9797 175 86.7852 175 89.7106V145.523C175 157.047 170.461 168.099 162.381 176.249C154.301 184.398 143.342 188.978 131.914 188.981ZM76.5673 155.891C79.4968 155.796 82.4154 156.296 85.1497 157.36C87.8841 158.425 90.3783 160.033 92.4844 162.089C94.5905 164.144 96.2655 166.606 97.4099 169.327C98.5543 172.048 99.1447 174.973 99.1462 177.929C99.1477 180.884 98.5601 183.81 97.4184 186.533C96.2767 189.255 94.6042 191.718 92.5001 193.776C90.3961 195.833 87.9034 197.444 85.1702 198.511C82.4369 199.579 79.5188 200.081 76.5892 199.989C70.9097 199.811 65.5219 197.411 61.5659 193.298C57.61 189.185 55.3963 183.681 55.3935 177.951C55.3906 172.221 57.5988 166.715 61.5507 162.597C65.5025 158.48 70.888 156.075 76.5673 155.891ZM65.6291 177.951C65.6291 180.877 66.7815 183.682 68.8328 185.751C70.8841 187.819 73.6663 188.981 76.5673 188.981C79.4683 188.981 82.2504 187.819 84.3017 185.751C86.3531 183.682 87.5055 180.877 87.5055 177.951C87.5055 175.026 86.3531 172.22 84.3017 170.152C82.2504 168.083 79.4683 166.921 76.5673 166.921C73.6663 166.921 70.8841 168.083 68.8328 170.152C66.7815 172.22 65.6291 175.026 65.6291 177.951ZM98.4437 62.1354V15.2575L150.4 67.6504H103.913C102.462 67.6504 101.071 67.0694 100.046 66.0351C99.0198 65.0008 98.4437 63.598 98.4437 62.1354Z" fill="white"/>
</svg>
