<svg width="200" height="160" viewBox="0 0 200 160" fill="none" xmlns="http://www.w3.org/2000/svg">
<path d="M0 15C0 6.71562 6.71562 0 15 0H105C113.281 0 120 6.71562 120 15V72.5625C107.781 82.6562 100 97.9062 100 115C100 130.469 106.375 144.438 116.656 154.438C113.906 157.844 109.719 160 105 160H75V135C75 126.719 68.2812 120 60 120C51.7188 120 45 126.719 45 135V160H15C6.71562 160 0 153.281 0 145V15ZM25 70C22.2375 70 20 72.25 20 75V85C20 87.75 22.2375 90 25 90H35C37.75 90 40 87.75 40 85V75C40 72.25 37.75 70 35 70H25ZM50 85C50 87.75 52.25 90 55 90H65C67.75 90 70 87.75 70 85V75C70 72.25 67.75 70 65 70H55C52.25 70 50 72.25 50 75V85ZM85 70C82.25 70 80 72.25 80 75V85C80 87.75 82.25 90 85 90H95C97.75 90 100 87.75 100 85V75C100 72.25 97.75 70 95 70H85ZM20 45C20 47.75 22.2375 50 25 50H35C37.75 50 40 47.75 40 45V35C40 32.25 37.75 30 35 30H25C22.2375 30 20 32.25 20 35V45ZM55 30C52.25 30 50 32.25 50 35V45C50 47.75 52.25 50 55 50H65C67.75 50 70 47.75 70 45V35C70 32.25 67.75 30 65 30H55ZM80 45C80 47.75 82.25 50 85 50H95C97.75 50 100 47.75 100 45V35C100 32.25 97.75 30 95 30H85C82.25 30 80 32.25 80 35V45ZM200 115C200 139.844 179.844 160 155 160C130.156 160 110 139.844 110 115C110 90.1562 130.156 70 155 70C179.844 70 200 90.1562 200 115ZM153.969 101.031L162.938 110H135C132.25 110 130 112.25 130 115C130 117.75 132.25 120 135 120H162.938L153.969 128.969C152 130.906 152 134.094 153.969 136.031C155.906 138 159.094 138 161.031 136.031L178.531 118.531C180.5 116.594 180.5 113.406 178.531 111.469L161.031 93.9688C159.094 92 155.906 92 153.969 93.9688C152 95.9063 152 99.0937 153.969 101.031V101.031Z" fill="white"/>
</svg>
