<svg width="200" height="200" viewBox="0 0 200 200" fill="none" xmlns="http://www.w3.org/2000/svg">
<path d="M184.863 98.6326L104.414 18.242C103.835 17.6616 103.147 17.2012 102.389 16.887C101.632 16.5728 100.82 16.4111 100 16.4111C99.18 16.4111 98.3681 16.5728 97.6106 16.887C96.8532 17.2012 96.1652 17.6616 95.5859 18.242L15.1367 98.6326C12.793 100.976 11.4648 104.16 11.4648 107.48C11.4648 114.375 17.0703 119.98 23.9648 119.98H32.4414V177.344C32.4414 180.801 35.2344 183.594 38.6914 183.594H87.5V139.844H109.375V183.594H161.309C164.766 183.594 167.559 180.801 167.559 177.344V119.98H176.035C179.355 119.98 182.539 118.672 184.883 116.308C189.746 111.426 189.746 103.515 184.863 98.6326V98.6326Z" fill="white"/>
</svg>
