<svg width="200" height="180" viewBox="0 0 200 180" fill="none" xmlns="http://www.w3.org/2000/svg">
<g clip-path="url(#clip0_482_2556)">
<path d="M18.1451 179.545V164.428H27.4193C31.4517 164.428 35.5174 163.668 39.6169 162.15C43.7164 160.632 47.715 157.94 51.613 154.074C55.5107 157.94 59.5094 160.632 63.6089 162.15C67.7083 163.668 71.7742 164.428 75.8064 164.428C79.7043 164.428 83.7702 163.634 88.0041 162.047C92.2376 160.459 96.2367 157.733 100 153.867C104.032 157.87 108.064 160.597 112.096 162.047C116.13 163.497 120.161 164.22 124.193 164.22C128.092 164.22 132.157 163.461 136.391 161.943C140.625 160.424 144.624 157.733 148.387 153.867C152.15 157.733 156.15 160.459 160.383 162.047C164.617 163.634 168.683 164.428 172.581 164.428H181.855V179.545H172.581C168.683 179.545 164.684 178.958 160.584 177.785C156.485 176.611 152.419 174.507 148.387 171.468C144.355 174.507 140.289 176.611 136.19 177.785C132.09 178.958 128.092 179.545 124.193 179.545C120.295 179.545 116.298 178.958 112.197 177.785C108.098 176.611 104.032 174.507 100 171.468C95.9678 174.507 91.9018 176.611 87.8024 177.785C83.703 178.958 79.7043 179.545 75.8064 179.545C71.9086 179.545 67.9099 178.958 63.8105 177.785C59.711 176.611 55.6451 174.507 51.613 171.468C47.5807 174.507 43.5148 176.611 39.4153 177.785C35.3159 178.958 31.3173 179.545 27.4193 179.545H18.1451ZM100 59.4343C95.5642 59.4343 91.8009 57.812 88.7098 54.5677C85.6183 51.3233 84.0726 47.4232 84.0726 42.8672C84.0726 38.4494 85.6183 34.6182 88.7098 31.3739C91.8009 28.1294 95.5642 26.5073 100 26.5073C104.436 26.5073 108.199 28.1294 111.29 31.3739C114.382 34.6182 115.927 38.4494 115.927 42.8672C115.927 47.4232 114.382 51.3233 111.29 54.5677C108.199 57.812 104.436 59.4343 100 59.4343ZM75.8064 144.341C71.371 144.341 67.0364 143.201 62.8024 140.924C58.5685 138.645 54.8387 135.574 51.613 131.708C49.8656 133.503 47.8494 135.298 45.5645 137.092C43.2795 138.887 41.0618 140.544 38.9113 142.062C33.535 140.819 27.3522 139.128 20.363 136.989C13.3736 134.849 6.58602 132.536 0 130.051C7.79569 126.876 17.574 123.7 29.3347 120.525C41.0955 117.35 51.7474 114.934 61.2903 113.278L72.379 77.0368C73.4543 72.7569 75.9073 69.7542 79.7378 68.0285C83.5685 66.3027 87.4328 66.4753 91.3307 68.5461L112.096 79.7289L135.483 67.0966L149.193 34.3766L145.161 23.401L155.645 0L179.839 11.1828L169.758 34.7908L159.073 38.9326L128.63 111.828C140.726 113.485 153.595 116.073 167.238 119.594C180.881 123.114 191.801 126.6 200 130.051C193.28 132.536 186.459 134.884 179.536 137.092C172.615 139.301 166.465 140.958 161.089 142.062C158.939 140.406 156.72 138.715 154.435 136.989C152.15 135.263 150.135 133.503 148.387 131.708C145.161 135.574 141.431 138.645 137.198 140.924C132.964 143.201 128.63 144.341 124.193 144.341C119.758 144.341 115.423 143.201 111.19 140.924C106.956 138.645 103.226 135.574 100 131.708C96.7743 135.574 93.044 138.645 88.8105 140.924C84.5766 143.201 80.2419 144.341 75.8064 144.341ZM117.136 110.585L126.008 88.8408L112.096 96.0889L97.5807 89.048L91.3307 109.964C93.2119 109.964 94.8257 109.964 96.1698 109.964C97.5138 109.964 99.1266 109.964 101.008 109.964C103.561 109.964 106.116 109.998 108.67 110.068C111.223 110.136 114.045 110.309 117.136 110.585Z" fill="white" fill-opacity="0.2"/>
</g>
<defs>
<clipPath id="clip0_482_2556">
<rect width="200" height="179.545" fill="white"/>
</clipPath>
</defs>
</svg>
