<svg width="200" height="201" viewBox="0 0 200 201" fill="none" xmlns="http://www.w3.org/2000/svg">
<path d="M159.643 146.397L130.419 117.176C137.065 107.311 140.343 94.986 138.588 81.8527C135.595 59.5137 117.284 41.3345 94.9208 38.5035C61.6712 34.2967 33.7121 62.2527 37.9196 95.4987C40.7517 117.869 58.9353 136.193 81.2792 139.171C94.414 140.926 106.743 137.648 116.606 131.003L145.83 160.223C149.644 164.036 155.828 164.036 159.641 160.223C163.451 156.405 163.451 150.205 159.643 146.397V146.397ZM56.8103 88.8587C56.8103 71.6291 70.8289 57.6121 88.0605 57.6121C105.292 57.6121 119.311 71.6291 119.311 88.8587C119.311 106.088 105.292 120.105 88.0605 120.105C70.8289 120.105 56.8103 106.093 56.8103 88.8587V88.8587Z" fill="#BFBFBF"/>
</svg>
