<svg width="200" height="230" viewBox="0 0 200 230" fill="none" xmlns="http://www.w3.org/2000/svg">
<g clip-path="url(#clip0_482_2590)">
<path d="M100 115C131.562 115 157.143 89.4192 157.143 57.8567C157.143 26.2942 131.562 0.713867 100 0.713867C68.4375 0.713867 42.8571 26.2942 42.8571 57.8567C42.8571 89.4192 68.4375 115 100 115ZM140 129.285H132.545C122.634 133.839 111.607 136.428 100 136.428C88.3929 136.428 77.4107 133.839 67.4554 129.285H60C26.875 129.285 0 156.16 0 189.285V207.857C0 219.687 9.59821 229.285 21.4286 229.285H178.571C190.402 229.285 200 219.687 200 207.857V189.285C200 156.16 173.125 129.285 140 129.285Z" fill="white"/>
</g>
<defs>
<clipPath id="clip0_482_2590">
<rect width="200" height="228.571" fill="white" transform="translate(0 0.713867)"/>
</clipPath>
</defs>
</svg>
