<svg width="200" height="200" viewBox="0 0 200 200" fill="none" xmlns="http://www.w3.org/2000/svg">
<path fill-rule="evenodd" clip-rule="evenodd" d="M94.5281 6.45304C58.1625 8.71554 39.1594 29.3093 37.5 66.5499H74.1844C74.6438 53.6499 81.8437 44.0062 95.25 42.5843C108.409 41.1874 120.894 44.3218 124.675 53.3187C128.759 63.0374 119.591 74.3312 115.231 79.0718C107.163 87.8624 94.0562 94.2749 87.2625 103.759C80.6031 113.053 79.4188 125.281 78.9062 140.247H111.238C111.691 130.678 112.328 121.512 116.681 115.566C123.763 105.903 134.338 101.375 143.2 93.7437C151.666 86.4499 160.572 77.6593 162.084 64.053C166.625 23.3312 133.384 4.02804 94.5281 6.45304Z" fill="#F8F8F8"/>
<path d="M95.3593 193.75C106.633 193.75 115.772 184.75 115.772 173.647C115.772 162.544 106.633 153.544 95.3593 153.544C84.0858 153.544 74.9468 162.544 74.9468 173.647C74.9468 184.75 84.0858 193.75 95.3593 193.75Z" fill="#F8F8F8"/>
</svg>
