<svg width="200" height="201" viewBox="0 0 200 201" fill="none" xmlns="http://www.w3.org/2000/svg">
<g clip-path="url(#clip0_482_3010)">
<path d="M46.25 138.074L52.125 118.799H77.175L83.05 138.074H98.8125L73.7625 63.0867H56.4125L31.25 138.074H46.25ZM65.0375 77.4242L74.2125 107.749H55.2L64.375 77.4242H65.0375ZM124.525 79.0242C111.287 79.0242 102.612 88.5867 102.612 104.562V113.249C102.612 129.237 111.175 138.787 124.363 138.787C132.825 138.787 139.637 134.662 141.45 128.737H142.163V138.074H156.387V59.1367H141.887V88.6367H141.225C138.975 82.6992 132.725 79.0117 124.525 79.0117V79.0242ZM129.362 90.5617C136.612 90.5617 141.887 96.0617 141.887 104.787V112.312C141.887 121.812 136.937 127.312 129.587 127.312C122.112 127.312 117.438 121.699 117.438 111.712V106.049C117.438 96.1117 122.062 90.5492 129.362 90.5492V90.5617Z" fill="white"/>
<path d="M175 38.0742C178.315 38.0742 181.495 39.3912 183.839 41.7354C186.183 44.0796 187.5 47.259 187.5 50.5742V150.574C187.5 153.889 186.183 157.069 183.839 159.413C181.495 161.757 178.315 163.074 175 163.074H25C21.6848 163.074 18.5054 161.757 16.1612 159.413C13.817 157.069 12.5 153.889 12.5 150.574V50.5742C12.5 47.259 13.817 44.0796 16.1612 41.7354C18.5054 39.3912 21.6848 38.0742 25 38.0742H175ZM25 25.5742C18.3696 25.5742 12.0107 28.2081 7.32233 32.8965C2.63392 37.585 0 43.9438 0 50.5742L0 150.574C0 157.205 2.63392 163.563 7.32233 168.252C12.0107 172.94 18.3696 175.574 25 175.574H175C181.63 175.574 187.989 172.94 192.678 168.252C197.366 163.563 200 157.205 200 150.574V50.5742C200 43.9438 197.366 37.585 192.678 32.8965C187.989 28.2081 181.63 25.5742 175 25.5742H25Z" fill="white"/>
</g>
<defs>
<clipPath id="clip0_482_3010">
<rect width="200" height="200" fill="white" transform="translate(0 0.579102)"/>
</clipPath>
</defs>
</svg>
