<svg width="200" height="200" viewBox="0 0 200 200" fill="none" xmlns="http://www.w3.org/2000/svg">
<path d="M33.3333 33.3333H83.3333V83.3333H33.3333V33.3333ZM166.667 33.3333V83.3333H116.667V33.3333H166.667ZM116.667 125H133.333V108.333H116.667V91.6667H133.333V108.333H150V91.6667H166.667V108.333H150V125H166.667V150H150V166.667H133.333V150H108.333V166.667H91.6667V133.333H116.667V125ZM133.333 125V150H150V125H133.333ZM33.3333 166.667V116.667H83.3333V166.667H33.3333ZM50 50V66.6667H66.6667V50H50ZM133.333 50V66.6667H150V50H133.333ZM50 133.333V150H66.6667V133.333H50ZM33.3333 91.6667H50V108.333H33.3333V91.6667ZM75 91.6667H108.333V125H91.6667V108.333H75V91.6667ZM91.6667 50H108.333V83.3333H91.6667V50ZM16.6667 16.6667V50H0V16.6667C0 12.2464 1.75595 8.00716 4.88155 4.88155C8.00716 1.75595 12.2464 0 16.6667 0L50 0V16.6667H16.6667ZM183.333 0C187.754 0 191.993 1.75595 195.118 4.88155C198.244 8.00716 200 12.2464 200 16.6667V50H183.333V16.6667H150V0H183.333ZM16.6667 150V183.333H50V200H16.6667C12.2464 200 8.00716 198.244 4.88155 195.118C1.75595 191.993 0 187.754 0 183.333V150H16.6667ZM183.333 183.333V150H200V183.333C200 187.754 198.244 191.993 195.118 195.118C191.993 198.244 187.754 200 183.333 200H150V183.333H183.333Z" fill="white"/>
</svg>
