<svg width="200" height="200" viewBox="0 0 200 200" fill="none" xmlns="http://www.w3.org/2000/svg">
<path d="M91.6667 137.5H74.2L74.6833 139.959C80 165.875 90.025 183.334 100 183.334C104.125 183.334 108.267 180.35 112.075 175.009H108.333C103.913 175.009 99.6738 173.253 96.5482 170.127C93.4226 167.001 91.6667 162.762 91.6667 158.342V137.509V137.5ZM91.6667 125H72.2833C70.8268 112.523 70.4588 99.9418 71.1833 87.4003L71.4667 83.3336H128.542C128.958 88.7169 129.183 94.2836 129.183 100H108.333C103.913 100 99.6738 101.756 96.5482 104.882C93.4226 108.007 91.6667 112.247 91.6667 116.667V125ZM183.35 100H141.683C141.683 96.2169 141.592 92.4836 141.417 88.8086L141.1 83.3336H181.683C182.767 88.7086 183.35 94.2836 183.35 99.9919V100ZM61.4333 137.5L25.55 137.509L26.7666 139.834C37.3454 159.238 55.1794 173.662 76.3666 179.95C69.6166 169.617 64.4667 154.859 61.4333 137.509V137.5ZM58.9083 83.3336H18.325C15.5114 97.1807 16.2482 111.515 20.4666 125H59.6666L59.1916 120.167C58.134 107.915 58.0393 95.5999 58.9083 83.3336V83.3336ZM123.633 20.0586L124.533 21.4753C131.867 33.3919 137.217 50.7003 139.842 70.8336H178.1C173.565 58.7354 166.286 47.8536 156.835 39.0435C147.385 30.2334 136.02 23.7348 123.633 20.0586V20.0586ZM76.3666 20.0586L75.35 20.3669C63.1831 24.1478 52.0417 30.6606 42.7778 39.4074C33.5139 48.1543 26.3726 58.9036 21.9 70.8336H60.1666L60.6833 67.1669C63.575 47.8003 69.0333 31.3003 76.375 20.0586H76.3666ZM126.783 68.2086C122.05 37.8669 111 16.6836 100 16.6836C88.7 16.6836 77.325 39.0919 72.8333 70.8336H127.167L126.783 68.2086V68.2086ZM100 116.667C100 114.457 100.878 112.337 102.441 110.774C104.004 109.212 106.123 108.334 108.333 108.334H183.333C185.543 108.334 187.663 109.212 189.226 110.774C190.789 112.337 191.667 114.457 191.667 116.667V158.334C191.667 160.544 190.789 162.663 189.226 164.226C187.663 165.789 185.543 166.667 183.333 166.667H158.333V183.334H162.5C163.605 183.334 164.665 183.773 165.446 184.554C166.228 185.335 166.667 186.395 166.667 187.5C166.667 188.605 166.228 189.665 165.446 190.447C164.665 191.228 163.605 191.667 162.5 191.667H129.167C128.062 191.667 127.002 191.228 126.22 190.447C125.439 189.665 125 188.605 125 187.5C125 186.395 125.439 185.335 126.22 184.554C127.002 183.773 128.062 183.334 129.167 183.334H133.333V166.667H108.333C106.123 166.667 104.004 165.789 102.441 164.226C100.878 162.663 100 160.544 100 158.334V116.667Z" fill="white"/>
</svg>
