<svg width="200" height="201" viewBox="0 0 200 201" fill="none" xmlns="http://www.w3.org/2000/svg">
<path d="M35.182 165.399C39.0476 169.27 43.64 172.34 48.6954 174.43C53.7509 176.521 59.1696 177.592 64.6403 177.583C70.1122 177.592 75.5321 176.521 80.5888 174.43C85.6456 172.339 90.2395 169.27 94.107 165.399L117.674 141.824L105.89 130.041L82.3236 153.616C77.6275 158.291 71.2709 160.916 64.6445 160.916C58.018 160.916 51.6614 158.291 46.9653 153.616C42.2862 148.922 39.6587 142.565 39.6587 135.937C39.6587 129.309 42.2862 122.952 46.9653 118.258L70.5403 94.6909L58.757 82.9076L35.182 106.474C27.3803 114.295 22.999 124.89 22.999 135.937C22.999 146.983 27.3803 157.579 35.182 165.399V165.399ZM164.815 94.6909C172.613 86.8683 176.991 76.2736 176.991 65.2284C176.991 54.1833 172.613 43.5886 164.815 35.7659C156.995 27.9643 146.399 23.583 135.353 23.583C124.306 23.583 113.711 27.9643 105.89 35.7659L82.3236 59.3409L94.107 71.1243L117.674 47.5493C122.37 42.8742 128.726 40.2495 135.353 40.2495C141.979 40.2495 148.336 42.8742 153.032 47.5493C157.711 52.2432 160.339 58.6007 160.339 65.2284C160.339 71.8562 157.711 78.2137 153.032 82.9076L129.457 106.474L141.24 118.258L164.815 94.6909Z" fill="white"/>
<path d="M70.5329 141.835L58.7412 130.052L129.466 59.335L141.25 71.1266L70.5329 141.835Z" fill="white"/>
</svg>
