<svg width="200" height="200" viewBox="0 0 200 200" fill="none" xmlns="http://www.w3.org/2000/svg">
<path d="M127.632 17.8571H76.3158V0H127.632V17.8571ZM110.526 129.464C110.526 147.321 121.474 167.232 131.224 181.518C122.243 185.357 112.322 187.5 101.974 187.5C81.559 187.5 61.9804 179.034 47.5451 163.964C33.1097 148.894 25 128.455 25 107.143C25 85.8308 33.1097 65.3917 47.5451 50.3218C61.9804 35.2519 81.559 26.7857 101.974 26.7857C120.105 26.7857 136.783 33.3929 150.039 44.6429L162.184 31.7857C166.546 35.7143 170.395 39.8214 174.243 44.375L162.099 57.0536C168.171 65 172.875 74.2857 175.697 84.2857C169.972 81.7022 163.803 80.3654 157.566 80.3571C131.908 80.3571 110.526 102.679 110.526 129.464ZM110.526 116.071V53.5714H93.4211V116.071H110.526ZM187.5 129.464C187.5 152.679 157.566 187.5 157.566 187.5C157.566 187.5 127.632 152.679 127.632 129.464C127.632 112.5 141.316 98.2143 157.566 98.2143C173.816 98.2143 187.5 112.5 187.5 129.464ZM167.829 130.357C167.829 125 162.697 119.643 157.566 119.643C152.434 119.643 147.303 124.107 147.303 130.357C147.303 135.714 151.579 141.071 157.566 141.071C163.553 141.071 168.684 135.714 167.829 130.357V130.357Z" fill="white"/>
</svg>
