<svg width="200" height="200" viewBox="0 0 200 200" fill="none" xmlns="http://www.w3.org/2000/svg">
<path d="M50.0003 175H25.0003C22.7902 175 20.6706 174.122 19.1078 172.56C17.545 170.997 16.667 168.877 16.667 166.667V100C16.667 97.7902 17.545 95.6706 19.1078 94.1078C20.6706 92.545 22.7902 91.667 25.0003 91.667H50.0003C52.2105 91.667 54.3301 92.545 55.8929 94.1078C57.4557 95.6706 58.3337 97.7902 58.3337 100V166.667C58.3337 168.877 57.4557 170.997 55.8929 172.56C54.3301 174.122 52.2105 175 50.0003 175ZM108.334 175H83.3337C81.1235 175 79.0039 174.122 77.4411 172.56C75.8783 170.997 75.0003 168.877 75.0003 166.667V25.0003C75.0003 22.7902 75.8783 20.6706 77.4411 19.1078C79.0039 17.545 81.1235 16.667 83.3337 16.667H108.334C110.544 16.667 112.663 17.545 114.226 19.1078C115.789 20.6706 116.667 22.7902 116.667 25.0003V166.667C116.667 168.877 115.789 170.997 114.226 172.56C112.663 174.122 110.544 175 108.334 175ZM166.667 175H141.667C139.457 175 137.337 174.122 135.774 172.56C134.212 170.997 133.334 168.877 133.334 166.667V75.0003C133.334 72.7902 134.212 70.6706 135.774 69.1078C137.337 67.545 139.457 66.667 141.667 66.667H166.667C168.877 66.667 170.997 67.545 172.56 69.1078C174.122 70.6706 175 72.7902 175 75.0003V166.667C175 168.877 174.122 170.997 172.56 172.56C170.997 174.122 168.877 175 166.667 175Z" fill="white"/>
</svg>
