<svg width="200" height="200" viewBox="0 0 200 200" fill="none" xmlns="http://www.w3.org/2000/svg">
<path d="M22.2227 170.371V114.815L97.0765 96.2967L22.2227 77.7782V22.2227L156.024 77.7782H153.217C134.971 77.7782 119.495 84.1424 106.789 96.8708C94.0761 109.605 87.7197 125 87.7197 143.056L22.2227 170.371ZM153.217 188.889C140.273 188.889 129.242 184.377 120.122 175.352C110.996 166.321 106.433 155.402 106.433 142.593C106.433 129.784 110.996 118.865 120.122 109.834C129.242 100.809 140.273 96.2967 153.217 96.2967C166.16 96.2967 177.195 100.809 186.321 109.834C195.441 118.865 200 129.784 200 142.593C200 155.402 195.441 166.321 186.321 175.352C177.195 184.377 166.16 188.889 153.217 188.889ZM168.655 164.352L175.205 157.871L157.895 140.741V114.815H148.538V144.445L168.655 164.352Z" fill="white"/>
</svg>
