<svg width="200" height="200" viewBox="0 0 200 200" fill="none" xmlns="http://www.w3.org/2000/svg">
<path d="M200 106.156H102.69L33.8792 174.966C47.9259 187.359 65.1685 195.561 83.6458 198.639C102.123 201.718 121.094 199.549 138.399 192.38C155.705 185.211 170.652 173.329 181.54 158.087C192.427 142.844 198.819 124.851 199.987 106.156H200ZM25.0339 166.108C12.6413 152.062 4.43938 134.819 1.36091 116.342C-1.71756 97.8643 0.451009 78.894 7.61998 61.5881C14.7889 44.2822 26.6706 29.3354 41.9135 18.4478C57.1564 7.56009 75.1488 1.16852 93.8443 0V97.3104L25.0339 166.121V166.108ZM106.355 0V93.6447H200C198.475 69.3082 188.119 46.3651 170.877 29.1228C153.635 11.8805 130.692 1.52486 106.355 0V0Z" fill="white"/>
</svg>
